<svg width="25" height="24" viewBox="0 0 25 24" fill="none" xmlns="http://www.w3.org/2000/svg">
    <rect x="5.50102" y="3.835" width="14.33" height="16.33" rx="1.165" stroke="#1B1E28" stroke-width="1.67"/>
    <g clip-path="url(#clip0_3938_51385)">
        <path d="M15.1637 10.6666C15.1637 12.0464 14.0452 13.1649 12.6654 13.1649C11.2856 13.1649 10.167 12.0464 10.167 10.6666C10.167 10.0262 10.4069 9.44379 10.803 9.00124C11.0144 8.76501 11.2697 8.5695 11.5555 8.4275C11.8889 8.26181 12.265 8.16825 12.6654 8.16825C14.0452 8.16825 15.1637 9.28679 15.1637 10.6666Z" stroke="#1B1E28" stroke-width="1.67"/>
        <path d="M18.666 19.3333V18.6666C18.666 16.8256 17.1736 15.3333 15.3327 15.3333H9.99935C8.1584 15.3333 6.66602 16.8256 6.66602 18.6666V19.3333" stroke="#1B1E28" stroke-width="1.67" stroke-linecap="round"/>
    </g>
    <rect x="2.66602" y="7" width="6" height="1.67" rx="0.835" fill="#1B1E28"/>
    <rect x="2.66602" y="11" width="6" height="1.67" rx="0.835" fill="#1B1E28"/>
    <defs>
        <clipPath id="clip0_3938_51385">
            <rect width="16" height="16" fill="white" transform="translate(4.66602 6)"/>
        </clipPath>
    </defs>
</svg>
