<svg width="24" height="24" viewBox="0 0 24 24" fill="none" xmlns="http://www.w3.org/2000/svg">
    <path d="M16 7C16 9.20914 14.2091 11 12 11C9.79086 11 8 9.20914 8 7C8 5.97489 8.38431 5.04192 9.01829 4.33358C9.35657 3.95562 9.7652 3.64266 10.2228 3.41525C10.757 3.14976 11.3596 3 12 3C14.2091 3 16 4.79086 16 7Z" stroke="#1B1E28" stroke-width="2"/>
    <path d="M21 20V19C21 16.2386 18.7614 14 16 14H8C5.23858 14 3 16.2386 3 19V20" stroke="#1B1E28" stroke-width="2" stroke-linecap="round"/>
    <rect x="18.75" y="7.75" width="1.5" height="5" rx="0.75" fill="#1B1E28"/>
    <rect x="17" y="11" width="1.5" height="5" rx="0.75" transform="rotate(-90 17 11)" fill="#1B1E28"/>
</svg>
