<svg width="25" height="24" viewBox="0 0 25 24" fill="none" xmlns="http://www.w3.org/2000/svg">
    <path d="M13.592 17.3136H11.3891L11.4032 15.904H13.592C14.2296 15.904 14.7632 15.7647 15.1929 15.4861C15.6274 15.2074 15.9532 14.8084 16.1704 14.2889C16.3924 13.7695 16.5034 13.1509 16.5034 12.4331V11.8735C16.5034 11.3162 16.4396 10.8227 16.3121 10.393C16.1893 9.96328 16.0052 9.60202 15.7596 9.30923C15.5188 9.01644 15.2212 8.79449 14.8671 8.64338C14.5176 8.49226 14.1139 8.41671 13.6558 8.41671H11.3466V7H13.6558C14.3405 7 14.9662 7.1157 15.5329 7.34709C16.0996 7.57377 16.5884 7.90197 16.9992 8.3317C17.4148 8.76144 17.7335 9.27617 17.9555 9.87591C18.1774 10.4757 18.2884 11.1462 18.2884 11.8876V12.4331C18.2884 13.1745 18.1774 13.845 17.9555 14.4448C17.7335 15.0445 17.4148 15.5593 16.9992 15.989C16.5836 16.414 16.0878 16.7422 15.5117 16.9736C14.9403 17.2003 14.3004 17.3136 13.592 17.3136ZM12.3737 7V17.3136H11.3211C10.9205 17.3136 10.5957 16.9889 10.5957 16.5883V7.72535C10.5957 7.32475 10.9205 7 11.3211 7H12.3737Z" fill="#1B1E28"/>
    <path d="M8.3866 7C8.7872 7 9.11195 7.32475 9.11195 7.72535V16.5883C9.11195 16.9889 8.7872 17.3136 8.3866 17.3136H8.05934C7.65874 17.3136 7.33398 16.9889 7.33398 16.5883V7.72535C7.33398 7.32475 7.65874 7 8.05934 7H8.3866Z" fill="#1B1E28"/>
    <circle cx="12.334" cy="12" r="9.165" stroke="#1B1E28" stroke-width="1.67"/>
</svg>
