<svg width="40" height="40" viewBox="0 0 40 40" fill="none" xmlns="http://www.w3.org/2000/svg">
    <g clip-path="url(#clip0_4037_93245)">
        <circle cx="17" cy="18" r="1" fill="#1B1E28"/>
        <circle cx="20" cy="18" r="1" fill="#1B1E28"/>
        <circle cx="23" cy="18" r="1" fill="#1B1E28"/>
        <path fill-rule="evenodd" clip-rule="evenodd" d="M26 21C25.4477 21 25 21.4477 25 22V24H23C22.4477 24 22 24.4477 22 25C22 25.5523 22.4477 26 23 26H25V28C25 28.5523 25.4477 29 26 29C26.5523 29 27 28.5523 27 28V26H29C29.5523 26 30 25.5523 30 25C30 24.4477 29.5523 24 29 24H27V22C27 21.4477 26.5523 21 26 21Z" fill="#1B1E28"/>
        <path d="M29 22V18C29 14.134 25.866 11 22 11H18C14.134 11 11 14.134 11 18V18.4377C11 21.8466 12.926 24.963 15.9751 26.4875L19 28L18 25H20" stroke="#1B1E28" stroke-width="2" stroke-linecap="round" stroke-linejoin="round"/>
    </g>
    <defs>
        <clipPath id="clip0_4037_93245">
            <rect width="40" height="40" rx="20" fill="white"/>
        </clipPath>
    </defs>
</svg>
