<svg width="40" height="40" viewBox="0 0 40 40" fill="none" xmlns="http://www.w3.org/2000/svg">
    <circle cx="20" cy="20" r="11" stroke="#1B1E28" stroke-width="2"/>
    <path d="M20.9629 12.8203V15.125H19.7441V12.8203H20.9629ZM20.8145 25.5781V27.6797H19.5957V25.5781H20.8145ZM21.6738 23.0156C21.6738 22.7188 21.6191 22.4661 21.5098 22.2578C21.4056 22.0495 21.2337 21.8646 20.9941 21.7031C20.7598 21.5417 20.4421 21.3854 20.041 21.2344C19.3639 20.974 18.7676 20.6979 18.252 20.4062C17.7415 20.1094 17.3431 19.7422 17.0566 19.3047C16.7702 18.862 16.627 18.3021 16.627 17.625C16.627 16.9792 16.7806 16.4193 17.0879 15.9453C17.3952 15.4714 17.8197 15.1068 18.3613 14.8516C18.9082 14.5911 19.5436 14.4609 20.2676 14.4609C20.8197 14.4609 21.3197 14.5443 21.7676 14.7109C22.2155 14.8724 22.6009 15.112 22.9238 15.4297C23.2467 15.7422 23.4941 16.125 23.666 16.5781C23.8379 17.0312 23.9238 17.5495 23.9238 18.1328H21.6816C21.6816 17.8203 21.6478 17.5443 21.5801 17.3047C21.5124 17.0651 21.4134 16.8646 21.2832 16.7031C21.1582 16.5417 21.0072 16.4219 20.8301 16.3438C20.653 16.2604 20.4577 16.2188 20.2441 16.2188C19.9264 16.2188 19.666 16.2812 19.4629 16.4062C19.2598 16.5312 19.1113 16.7005 19.0176 16.9141C18.929 17.1224 18.8848 17.362 18.8848 17.6328C18.8848 17.8984 18.9316 18.1302 19.0254 18.3281C19.1243 18.526 19.2936 18.7083 19.5332 18.875C19.7728 19.0365 20.1009 19.2031 20.5176 19.375C21.1947 19.6354 21.7884 19.9167 22.2988 20.2188C22.8092 20.5208 23.2077 20.8906 23.4941 21.3281C23.7806 21.7656 23.9238 22.3229 23.9238 23C23.9238 23.6719 23.7676 24.2448 23.4551 24.7188C23.1426 25.1875 22.7051 25.5469 22.1426 25.7969C21.5801 26.0417 20.929 26.1641 20.1895 26.1641C19.7103 26.1641 19.2337 26.1016 18.7598 25.9766C18.2858 25.8464 17.8561 25.638 17.4707 25.3516C17.0853 25.0651 16.778 24.6849 16.5488 24.2109C16.3197 23.7318 16.2051 23.1432 16.2051 22.4453H18.4551C18.4551 22.8255 18.5046 23.1432 18.6035 23.3984C18.7025 23.6484 18.8327 23.849 18.9941 24C19.1608 24.1458 19.3483 24.25 19.5566 24.3125C19.765 24.375 19.9759 24.4062 20.1895 24.4062C20.5228 24.4062 20.7962 24.3464 21.0098 24.2266C21.2285 24.1068 21.3926 23.9427 21.502 23.7344C21.6165 23.5208 21.6738 23.2812 21.6738 23.0156Z" fill="#1B1E28"/>
</svg>
