<svg width="24" height="24" viewBox="0 0 24 24" fill="none" xmlns="http://www.w3.org/2000/svg">
    <path d="M18.0911 14.3137L20.2124 16.435C20.6029 16.8256 20.6029 17.4587 20.2124 17.8492L18.7961 19.2655C17.4973 20.5643 15.5761 21.0179 13.8336 20.437C8.94644 18.808 5.1115 14.973 3.48246 10.0859C2.90161 8.34336 3.35513 6.42221 4.65395 5.1234L6.07024 3.70711C6.46076 3.31658 7.09393 3.31658 7.48445 3.70711L9.60577 5.82843C9.9963 6.21895 9.9963 6.85212 9.60577 7.24264L8.29011 8.5583C8.22782 8.62059 8.19722 8.70782 8.20695 8.79538C8.61135 12.435 11.4845 15.3081 15.1241 15.7125C15.2117 15.7223 15.2989 15.6917 15.3612 15.6294L16.6768 14.3137C17.0674 13.9232 17.7005 13.9232 18.0911 14.3137Z" stroke="#B8B9BC" stroke-width="2"/>
</svg>
