<svg width="12" height="10" viewBox="0 0 12 10" fill="none" xmlns="http://www.w3.org/2000/svg">
    <path fill-rule="evenodd" clip-rule="evenodd" d="M2.71595 1.1362C2.88289 0.468445 3.48286 0 4.17116 0H7.82884C8.51714 0 9.11711 0.468446 9.28405 1.1362L9.5 2H10.5C11.3284 2 12 2.67157 12 3.5V8.5C12 9.32843 11.3284 10 10.5 10H1.5C0.671573 10 0 9.32843 0 8.5V3.5C0 2.67157 0.671573 2 1.5 2H2.5L2.71595 1.1362ZM6 8C7.10457 8 8 7.10457 8 6C8 4.89543 7.10457 4 6 4C4.89543 4 4 4.89543 4 6C4 7.10457 4.89543 8 6 8Z" fill="white"/>
</svg>
