<svg width="24" height="24" viewBox="0 0 24 24" fill="none" xmlns="http://www.w3.org/2000/svg">
    <mask id="path-1-inside-1_3635_18783" fill="white">
        <path fill-rule="evenodd" clip-rule="evenodd" d="M10 2C5.58172 2 2 5.58172 2 10C2 12.9635 3.61139 15.5507 6.00578 16.9331L10.6998 20.2921C11.4329 20.8167 12.4312 20.1798 12.2645 19.2939L12.0209 18H14C18.4183 18 22 14.4183 22 10C22 5.58172 18.4183 2 14 2H10Z"/>
    </mask>
    <path d="M6.00578 16.9331L7.16967 15.3066C7.11679 15.2688 7.0621 15.2335 7.00579 15.201L6.00578 16.9331ZM10.6998 20.2921L11.8637 18.6656L11.8637 18.6656L10.6998 20.2921ZM12.2645 19.2939L14.23 18.9239L14.23 18.9239L12.2645 19.2939ZM12.0209 18V16C11.4257 16 10.8614 16.2651 10.4815 16.7233C10.1015 17.1814 9.94535 17.785 10.0555 18.37L12.0209 18ZM4 10C4 6.68629 6.68629 4 10 4V0C4.47715 0 0 4.47715 0 10H4ZM7.00579 15.201C5.20477 14.1612 4 12.2201 4 10H0C0 13.7069 2.018 16.9401 5.00578 18.6651L7.00579 15.201ZM11.8637 18.6656L7.16967 15.3066L4.8419 18.5595L9.53591 21.9185L11.8637 18.6656ZM10.299 19.6638C10.1322 18.778 11.1306 18.141 11.8637 18.6656L9.53591 21.9185C11.7351 23.4923 14.7302 21.5816 14.23 18.9239L10.299 19.6638ZM10.0555 18.37L10.299 19.6638L14.23 18.9239L13.9864 17.63L10.0555 18.37ZM14 16H12.0209V20H14V16ZM20 10C20 13.3137 17.3137 16 14 16V20C19.5228 20 24 15.5228 24 10H20ZM14 4C17.3137 4 20 6.68629 20 10H24C24 4.47715 19.5228 0 14 0V4ZM10 4H14V0H10V4Z" fill="#1B1E28" mask="url(#path-1-inside-1_3635_18783)"/>
    <circle cx="9" cy="10" r="1" fill="#1B1E28"/>
    <circle cx="12" cy="10" r="1" fill="#1B1E28"/>
    <circle cx="15" cy="10" r="1" fill="#1B1E28"/>
</svg>
