<svg width="20" height="19" viewBox="0 0 20 19" fill="none" xmlns="http://www.w3.org/2000/svg">
    <mask id="path-1-inside-1_1_3344" fill="white">
        <path fill-rule="evenodd" clip-rule="evenodd" d="M8 0C3.58172 0 0 3.58172 0 8C0 10.9635 1.61139 13.5507 4.00578 14.9331L8.69979 18.2921C9.43287 18.8167 10.4312 18.1798 10.2645 17.2939L10.0209 16H12C16.4183 16 20 12.4183 20 8C20 3.58172 16.4183 0 12 0H8Z"/>
    </mask>
    <path d="M4.00578 14.9331L5.16967 13.3066C5.11679 13.2688 5.0621 13.2335 5.00579 13.201L4.00578 14.9331ZM8.69979 18.2921L9.86368 16.6656L9.86368 16.6656L8.69979 18.2921ZM10.2645 17.2939L12.23 16.9239L12.23 16.9239L10.2645 17.2939ZM10.0209 16V14C9.42572 14 8.86144 14.2651 8.48147 14.7233C8.10151 15.1814 7.94535 15.785 8.05545 16.37L10.0209 16ZM2 8C2 4.68629 4.68629 2 8 2V-2C2.47715 -2 -2 2.47715 -2 8H2ZM5.00579 13.201C3.20477 12.1612 2 10.2201 2 8H-2C-2 11.7069 0.0180032 14.9401 3.00578 16.6651L5.00579 13.201ZM9.86368 16.6656L5.16967 13.3066L2.8419 16.5595L7.53591 19.9185L9.86368 16.6656ZM8.29899 17.6638C8.13225 16.778 9.1306 16.141 9.86368 16.6656L7.53591 19.9185C9.73514 21.4923 12.7302 19.5816 12.23 16.9239L8.29899 17.6638ZM8.05545 16.37L8.29899 17.6638L12.23 16.9239L11.9864 15.63L8.05545 16.37ZM12 14H10.0209V18H12V14ZM18 8C18 11.3137 15.3137 14 12 14V18C17.5228 18 22 13.5228 22 8H18ZM12 2C15.3137 2 18 4.68629 18 8H22C22 2.47715 17.5228 -2 12 -2V2ZM8 2H12V-2H8V2Z" fill="#B8B9BC" mask="url(#path-1-inside-1_1_3344)"/>
    <circle cx="7" cy="8" r="1" fill="#B8B9BC"/>
    <circle cx="10" cy="8" r="1" fill="#B8B9BC"/>
    <circle cx="13" cy="8" r="1" fill="#B8B9BC"/>
</svg>
