<svg width="20" height="20" viewBox="0 0 20 20" fill="none" xmlns="http://www.w3.org/2000/svg">
    <g clip-path="url(#clip0_3443_36121)">
        <path d="M1.81641 3.46075C1.81641 2.89001 2.18924 2.38624 2.73507 2.21946L9.46742 0.162354C9.81374 0.0565331 10.1838 0.0565329 10.5301 0.162354L17.2624 2.21946C17.8083 2.38624 18.1811 2.89001 18.1811 3.46075V10.0985C18.1811 12.1948 17.4773 14.2303 16.1824 15.8788C15.343 16.9475 14.2809 17.8206 13.0699 18.4373L11.6889 19.1406C10.627 19.6813 9.37048 19.6813 8.30859 19.1406L6.92764 18.4373C5.71665 17.8206 4.65451 16.9475 3.81508 15.8788C2.52024 14.2303 1.81641 12.1948 1.81641 10.0985V3.46075Z" fill="#81D065"/>
        <path d="M8.74046 13.2602C8.51561 13.485 8.15106 13.485 7.92621 13.2602L5.58333 10.9173C5.26117 10.5952 5.26117 10.0728 5.58333 9.75065C5.9055 9.42849 6.42783 9.42849 6.75 9.75065L8.33333 11.334L13.25 6.41732C13.5722 6.09515 14.0945 6.09515 14.4167 6.41732C14.7388 6.73948 14.7388 7.26182 14.4167 7.58398L8.74046 13.2602Z" fill="#81D065"/>
        <path d="M8.74046 13.2602C8.51561 13.485 8.15106 13.485 7.92621 13.2602L5.58333 10.9173C5.26117 10.5952 5.26117 10.0728 5.58333 9.75065C5.9055 9.42849 6.42783 9.42849 6.75 9.75065L8.33333 11.334L13.25 6.41732C13.5722 6.09515 14.0945 6.09515 14.4167 6.41732C14.7388 6.73948 14.7388 7.26182 14.4167 7.58398L8.74046 13.2602Z" fill="white" fill-opacity="0.2"/>
        <path d="M8.74046 13.2602C8.51561 13.485 8.15106 13.485 7.92621 13.2602L5.58333 10.9173C5.26117 10.5952 5.26117 10.0728 5.58333 9.75065C5.9055 9.42849 6.42783 9.42849 6.75 9.75065L8.33333 11.334L13.25 6.41732C13.5722 6.09515 14.0945 6.09515 14.4167 6.41732C14.7388 6.73948 14.7388 7.26182 14.4167 7.58398L8.74046 13.2602Z" fill="white" fill-opacity="0.4"/>
    </g>
    <defs>
        <clipPath id="clip0_3443_36121">
            <rect width="20" height="20" fill="white"/>
        </clipPath>
    </defs>
</svg>
