<svg width="14" height="14" viewBox="0 0 14 14" fill="none" xmlns="http://www.w3.org/2000/svg">
    <path d="M6.4763 13.2709H4.0263C1.74547 13.2709 0.730469 12.2559 0.730469 9.97508V7.52508C0.730469 5.24425 1.74547 4.22925 4.0263 4.22925H6.4763C8.75714 4.22925 9.77214 5.24425 9.77214 7.52508V9.97508C9.77214 12.2559 8.75714 13.2709 6.4763 13.2709ZM4.0263 5.10425C2.21797 5.10425 1.60547 5.71675 1.60547 7.52508V9.97508C1.60547 11.7834 2.21797 12.3959 4.0263 12.3959H6.4763C8.28464 12.3959 8.89714 11.7834 8.89714 9.97508V7.52508C8.89714 5.71675 8.28464 5.10425 6.4763 5.10425H4.0263Z" fill="#292D32"/>
    <path d="M9.9763 9.77092H9.33464C9.09547 9.77092 8.89714 9.57258 8.89714 9.33342V7.52508C8.89714 5.71675 8.28464 5.10425 6.4763 5.10425H4.66797C4.4288 5.10425 4.23047 4.90591 4.23047 4.66675V4.02508C4.23047 1.74425 5.24547 0.729248 7.5263 0.729248H9.9763C12.2571 0.729248 13.2721 1.74425 13.2721 4.02508V6.47508C13.2721 8.75592 12.2571 9.77092 9.9763 9.77092ZM9.77214 8.89592H9.9763C11.7846 8.89592 12.3971 8.28342 12.3971 6.47508V4.02508C12.3971 2.21675 11.7846 1.60425 9.9763 1.60425H7.5263C5.71797 1.60425 5.10547 2.21675 5.10547 4.02508V4.22925H6.4763C8.75714 4.22925 9.77214 5.24425 9.77214 7.52508V8.89592Z" fill="#292D32"/>
</svg>
