<svg width="20" height="20" viewBox="0 0 20 20" fill="none" xmlns="http://www.w3.org/2000/svg">
    <path d="M12.7164 18.5417H7.28307C3.19141 18.5417 1.44141 16.7917 1.44141 12.7001V12.5917C1.44141 8.89173 2.89974 7.1084 6.16641 6.80006C6.49974 6.77506 6.81641 7.02506 6.84974 7.36673C6.88307 7.7084 6.63307 8.01673 6.28307 8.05006C3.66641 8.29173 2.69141 9.52506 2.69141 12.6001V12.7084C2.69141 16.1001 3.89141 17.3001 7.28307 17.3001H12.7164C16.1081 17.3001 17.3081 16.1001 17.3081 12.7084V12.6001C17.3081 9.5084 16.3164 8.27506 13.6497 8.05006C13.3081 8.01673 13.0497 7.71673 13.0831 7.37506C13.1164 7.0334 13.4081 6.77506 13.7581 6.8084C17.0747 7.09173 18.5581 8.8834 18.5581 12.6084V12.7167C18.5581 16.7917 16.8081 18.5417 12.7164 18.5417Z" fill="#292D32"/>
    <path d="M10 13.0251C9.65833 13.0251 9.375 12.7417 9.375 12.4001V1.66675C9.375 1.32508 9.65833 1.04175 10 1.04175C10.3417 1.04175 10.625 1.32508 10.625 1.66675V12.4001C10.625 12.7501 10.3417 13.0251 10 13.0251Z" fill="#292D32"/>
    <path d="M10.0005 13.9583C9.84219 13.9583 9.68385 13.9 9.55885 13.775L6.76719 10.9833C6.52552 10.7416 6.52552 10.3416 6.76719 10.1C7.00885 9.85828 7.40885 9.85828 7.65052 10.1L10.0005 12.45L12.3505 10.1C12.5922 9.85828 12.9922 9.85828 13.2339 10.1C13.4755 10.3416 13.4755 10.7416 13.2339 10.9833L10.4422 13.775C10.3172 13.9 10.1589 13.9583 10.0005 13.9583Z" fill="#292D32"/>
</svg>
