<svg width="24" height="24" viewBox="0 0 40 40" fill="none" xmlns="http://www.w3.org/2000/svg">
    <g clip-path="url(#clip0_4961_93476)">
        <g clip-path="url(#clip1_4961_93476)">
            <path
                d="M20 11C22.2091 11 24 12.7909 24 15C24 17.2091 22.2091 19 20 19C17.7909 19 16 17.2091 16 15C16 14.0389 16.3377 13.1587 16.9023 12.4688L17.0186 12.334C17.3145 12.0033 17.6643 11.7223 18.0537 11.5049L18.2227 11.415C18.7569 11.1495 19.3596 11 20 11Z"
                stroke="#1B1E28"
                stroke-width="2"
            />
            <path
                d="M29 28V27C29 24.2386 26.7614 22 24 22H16C13.2386 22 11 24.2386 11 27V28"
                stroke="#1B1E28"
                stroke-width="2"
                stroke-linecap="round"
            />
        </g>
    </g>
    <path
        d="M28.2675 20.32C28.0775 20.32 27.8875 20.25 27.7375 20.1L26.2175 18.58C25.9275 18.29 25.9275 17.81 26.2175 17.52C26.5075 17.23 26.9875 17.23 27.2775 17.52L28.2675 18.51L30.7775 16C31.0675 15.71 31.5475 15.71 31.8375 16C32.1275 16.29 32.1275 16.77 31.8375 17.06L28.7975 20.1C28.6475 20.25 28.4575 20.32 28.2675 20.32Z"
        fill="#292D32"
    />
    <defs>
        <clipPath id="clip0_4961_93476">
            <rect width="40" height="40" rx="20" fill="white"/>
        </clipPath>
        <clipPath id="clip1_4961_93476">
            <rect width="24" height="24" fill="white" transform="translate(8 8)"/>
        </clipPath>
    </defs>
</svg>
