<svg width="18" height="21" viewBox="0 0 18 21" fill="none" xmlns="http://www.w3.org/2000/svg">
    <path d="M1 8.02262C1 7.70152 1.1542 7.39995 1.41451 7.21194L8.41451 2.15639L7.82902 1.34571L8.41451 2.15639C8.76402 1.90396 9.23598 1.90396 9.58549 2.15639L16.5855 7.21194C16.8458 7.39995 17 7.70152 17 8.02262V19C17 19.5523 16.5523 20 16 20H2C1.44772 20 1 19.5523 1 19V8.02262Z" stroke="#B8B9BC" stroke-width="2"/>
    <path d="M6 16C6 14.3431 7.34315 13 9 13C10.6569 13 12 14.3431 12 16V20H9H6V16Z" stroke="#B8B9BC" stroke-width="2"/>
</svg>
