<svg width="24" height="24" viewBox="0 0 24 24" fill="none" xmlns="http://www.w3.org/2000/svg">
    <path d="M13.5353 10.7037C13.5353 12.288 12.2509 13.5724 10.6666 13.5724C9.08225 13.5724 7.79789 12.288 7.79789 10.7037C7.79789 9.96844 8.07341 9.29952 8.52816 8.79144C8.77084 8.52029 9.06396 8.29582 9.39211 8.13274C9.77509 7.94241 10.2071 7.835 10.6666 7.835C12.2509 7.835 13.5353 9.11936 13.5353 10.7037Z" stroke="#1B1E28" stroke-width="1.67"/>
    <path d="M17.3333 20.3334V19.5926C17.3333 17.5471 15.6751 15.8889 13.6296 15.8889H7.70371C5.65821 15.8889 4 17.5471 4 19.5926V20.3334" stroke="#1B1E28" stroke-width="1.67" stroke-linecap="round"/>
    <path d="M14.5625 6L17.0625 8.5L21.4375 4.125" stroke="#1B1E28" stroke-width="1.67" stroke-linecap="round" stroke-linejoin="round"/>
</svg>
