<svg width="20" height="20" viewBox="0 0 20 20" fill="none" xmlns="http://www.w3.org/2000/svg">
    <g clip-path="url(#clip0_3393_80785)">
        <path d="M12.4885 13.305L14.1403 14.9567C14.4006 15.217 14.4006 15.6391 14.1403 15.8995L13.1961 16.8437C12.3302 17.7096 11.0494 18.0119 9.88775 17.6247C6.62966 16.5387 4.07303 13.982 2.987 10.7239C2.59977 9.56224 2.90212 8.28147 3.768 7.4156L4.71219 6.4714C4.97254 6.21106 5.39465 6.21105 5.655 6.4714L7.30673 8.12314C7.4359 8.25231 7.4359 8.46174 7.30673 8.59091L6.69807 9.19957C6.33674 9.5609 6.15925 10.0669 6.21568 10.5747C6.43909 12.5854 8.0263 14.1726 10.0369 14.396C10.5448 14.4524 11.0508 14.2749 11.4121 13.9136L12.0208 13.305C12.1499 13.1758 12.3594 13.1758 12.4885 13.305Z" fill="#FA8181" stroke="#FA8181"/>
        <path d="M10 5L14 9L18 5M10 5H14M10 5V9" stroke="#FA8181" stroke-width="1.5" stroke-linecap="round" stroke-linejoin="round"/>
    </g>
    <defs>
        <clipPath id="clip0_3393_80785">
            <rect width="20" height="20" fill="white"/>
        </clipPath>
    </defs>
</svg>
