<svg width="94" height="18" viewBox="0 0 94 18" fill="none" xmlns="http://www.w3.org/2000/svg">
    <g clip-path="url(#clip0_3615_20391)">
        <path d="M10.7977 12.1921H1.73388C0.807935 12.1921 0.38626 11.8052 0.194985 11.4792C-0.23973 10.7228 0.194986 9.79685 0.312359 9.61862C0.364525 9.51863 1.80343 6.67124 2.10339 6.11046C2.30586 5.75366 2.60517 5.46144 2.96673 5.26758C3.32828 5.07372 3.73732 4.98615 4.14655 5.01498H7.18956C7.32239 4.9967 7.44918 4.94794 7.56004 4.87253C7.6709 4.79712 7.76281 4.69709 7.8286 4.58026C7.8286 4.54548 8.50675 3.07614 9.13274 1.92849C9.33777 1.5105 9.64958 1.15409 10.0366 0.895307C10.4236 0.636528 10.8721 0.484569 11.3368 0.454808H15.5796C15.819 0.437506 16.059 0.479649 16.2781 0.577486C16.4973 0.675323 16.6889 0.825822 16.8359 1.01559C16.972 1.23071 17.0579 1.47372 17.0873 1.72658C17.1166 1.97944 17.0887 2.23566 17.0054 2.47624L16.9707 2.56753L15.6274 5.2932H14.2754L15.7535 2.05021C15.773 1.96878 15.773 1.88386 15.7535 1.80243C15.7535 1.80243 15.697 1.80243 15.5752 1.80243H11.2889C11.0664 1.83256 10.8555 1.91962 10.6765 2.05518C10.4976 2.19075 10.3566 2.37022 10.2674 2.57622C9.67614 3.68475 9.00668 5.16278 9.00233 5.18452C8.82624 5.52342 8.56396 5.80995 8.24191 6.01524C7.91985 6.22053 7.54939 6.33734 7.16783 6.3539H4.07265C3.91597 6.34462 3.7596 6.37668 3.61922 6.44688C3.47883 6.51707 3.35936 6.62293 3.27277 6.75384C2.97717 7.30158 1.49913 10.2316 1.48609 10.2316C1.36872 10.4533 1.27743 10.6663 1.3948 10.7837C1.3948 10.7837 1.43393 10.8619 1.73388 10.8619H10.7977C11.0502 10.8275 11.2899 10.7298 11.4943 10.5778C11.6988 10.4257 11.8615 10.2244 11.9671 9.99247C12.6452 8.78831 13.3017 7.60588 13.3104 7.58849H14.6536C14.6232 7.6624 13.8277 9.38387 13.1191 10.6315C12.9009 11.0707 12.5721 11.4456 12.1651 11.7192C11.758 11.9929 11.2868 12.1558 10.7977 12.1921Z" fill="url(#paint0_linear_3615_20391)"/>
        <path d="M9.37117 5.78436H18.435C19.3609 5.78436 19.7826 6.17126 19.9739 6.4973C20.4086 7.2537 19.9739 8.17965 19.8522 8.35788C19.8044 8.45786 18.3654 11.3053 18.0611 11.866C17.8589 12.2244 17.5592 12.5179 17.1967 12.7126C16.8343 12.9073 16.424 12.9951 16.0136 12.9659H12.9706C12.8386 12.9848 12.7126 13.0338 12.6026 13.1092C12.4925 13.1846 12.4013 13.2843 12.3359 13.4006C12.3359 13.4354 11.6534 14.9047 11.0318 16.0524C10.8275 16.47 10.5164 16.8263 10.1302 17.085C9.7439 17.3438 9.2961 17.496 8.83212 17.526H4.58495C4.34612 17.5438 4.10663 17.5018 3.88807 17.4039C3.66951 17.306 3.47874 17.1553 3.33297 16.9653C3.19673 16.7502 3.1104 16.5074 3.08031 16.2547C3.05022 16.0019 3.07713 15.7456 3.15908 15.5046L3.19386 15.4133L4.53713 12.6833H5.8891L4.41106 15.9263C4.39369 16.008 4.39369 16.0924 4.41106 16.1741C4.41106 16.1741 4.46758 16.1741 4.5893 16.1741H8.88429C9.10678 16.1439 9.31771 16.0569 9.49669 15.9213C9.67566 15.7858 9.8166 15.6063 9.90587 15.4003C10.4927 14.2918 11.1622 12.792 11.1709 12.792C11.3466 12.4537 11.6082 12.1676 11.9294 11.9623C12.2507 11.7571 12.6202 11.6399 13.001 11.6226H16.0962C16.2491 11.6314 16.4018 11.6009 16.5395 11.534C16.6773 11.467 16.7956 11.3658 16.8831 11.24C17.1743 10.6923 18.6524 7.76232 18.6697 7.76232C18.7871 7.54062 18.8741 7.30587 18.761 7.21023C18.761 7.21023 18.7176 7.13198 18.422 7.13198H9.38421C9.13237 7.16664 8.89342 7.26456 8.68969 7.41661C8.48595 7.56865 8.32407 7.76985 8.21917 8.00141C7.53667 9.20558 6.8846 10.3793 6.8846 10.3967H5.54133C5.5761 10.3228 6.36729 8.60132 7.07587 7.35369C7.2914 6.91695 7.61582 6.54311 8.01786 6.26823C8.4199 5.99335 8.88599 5.8267 9.37117 5.78436Z" fill="url(#paint1_linear_3615_20391)"/>
        <path d="M39.5252 0.719727V11.492C39.5252 15.1219 36.7648 17.5519 32.648 17.5389C28.5312 17.5258 25.7969 15.1219 25.7969 11.492V0.719727H29.2355V11.2138C29.2355 13.1309 30.6005 14.5046 32.648 14.5176C34.6955 14.5307 36.0779 13.1309 36.0649 11.2138V0.719727H39.5252Z" fill="#161616"/>
        <path d="M56.1597 17.313H53.1819L45.8917 6.77115H45.757V17.313H42.3184V0.71991H45.3614L52.6037 11.2618H52.7646V0.71991H56.1771L56.1597 17.313Z" fill="#161616"/>
        <path d="M62.3956 17.3128H58.957V0.719727H62.3956V17.3128Z" fill="#161616"/>
        <path d="M72.6621 3.55473C70.0842 3.55473 68.3758 5.54138 68.3758 9.03215C68.3758 12.6099 70.1147 14.5009 72.636 14.5096C74.527 14.5096 75.9485 13.4706 76.2833 11.6709H79.761C79.3828 14.74 76.8049 17.5352 72.5882 17.5352C68.1541 17.5352 64.8633 14.4096 64.8633 9.01041C64.8633 3.61124 68.2149 0.511719 72.5925 0.511719C76.418 0.511719 79.3089 2.6853 79.7653 6.51514H76.2876C76.005 4.66325 74.5966 3.55473 72.6621 3.55473Z" fill="#161616"/>
        <path d="M82.1738 0.71991H93.3112V3.55426H85.6081V7.59711H92.7374V10.4358H85.6081V14.47H93.333V17.313H82.1738V0.71991Z" fill="#161616"/>
    </g>
    <defs>
        <linearGradient id="paint0_linear_3615_20391" x1="0.00371048" y1="6.32782" x2="17.0967" y2="6.32782" gradientUnits="userSpaceOnUse">
            <stop stop-color="#0069E9"/>
            <stop offset="0.82" stop-color="#02B8FA"/>
            <stop offset="0.91" stop-color="#02C1FC"/>
        </linearGradient>
        <linearGradient id="paint1_linear_3615_20391" x1="11.6143" y1="5.78436" x2="11.6143" y2="17.5086" gradientUnits="userSpaceOnUse">
            <stop stop-color="#02C3FD"/>
            <stop offset="0.75" stop-color="#0274EC"/>
            <stop offset="0.91" stop-color="#0262E8"/>
        </linearGradient>
        <clipPath id="clip0_3615_20391">
            <rect width="93.3291" height="17.0713" fill="white" transform="translate(0.00390625 0.467773)"/>
        </clipPath>
    </defs>
</svg>
