<svg width="16" height="16" viewBox="0 0 16 16" fill="none" xmlns="http://www.w3.org/2000/svg">
    <path d="M7.99975 14C7.99962 14 7.99948 14 7.99935 14C7.99921 14 7.99908 14 7.99895 14H7.99975Z" stroke="#B8B9BC" stroke-width="1.33333"/>
    <path fill-rule="evenodd" clip-rule="evenodd" d="M3.33399 5.99998C3.33399 3.42265 5.42333 1.33331 8.00065 1.33331C9.6434 1.33331 11.0879 2.18212 11.9195 3.46509L2.94349 12.4411C2.39016 12.0664 2.15817 11.293 2.54558 10.6473L3.33399 9.33331L3.33399 5.99998ZM4.59884 12.6666H12.3124C13.3488 12.6666 13.9889 11.536 13.4557 10.6473L12.6673 9.33331V5.99998C12.6673 5.57198 12.6097 5.15744 12.5018 4.76368L4.59884 12.6666Z" fill="#B8B9BC"/>
    <rect x="12.9473" y="0.556244" width="1.33" height="17.967" rx="0.665" transform="rotate(45 12.9473 0.556244)" fill="#B8B9BC"/>
</svg>
