<svg width="20" height="21" viewBox="0 0 20 21" fill="none" xmlns="http://www.w3.org/2000/svg">
    <path d="M9.5 1.44338C9.8094 1.26474 10.1906 1.26474 10.5 1.44338L17.5933 5.53868C17.9027 5.71731 18.0933 6.04743 18.0933 6.4047V14.5953C18.0933 14.9526 17.9027 15.2827 17.5933 15.4613L10.5 19.5566C10.1906 19.7353 9.8094 19.7353 9.5 19.5566L2.40673 15.4613C2.09733 15.2827 1.90673 14.9526 1.90673 14.5953V6.4047C1.90673 6.04743 2.09733 5.71731 2.40673 5.53868L9.5 1.44338Z" stroke="#B8B9BC" stroke-width="2"/>
    <path d="M9.5 1.44338C9.8094 1.26474 10.1906 1.26474 10.5 1.44338L17.5933 5.53868C17.9027 5.71731 18.0933 6.04743 18.0933 6.4047V14.5953C18.0933 14.9526 17.9027 15.2827 17.5933 15.4613L10.5 19.5566C10.1906 19.7353 9.8094 19.7353 9.5 19.5566L2.40673 15.4613C2.09733 15.2827 1.90673 14.9526 1.90673 14.5953V6.4047C1.90673 6.04743 2.09733 5.71731 2.40673 5.53868L9.5 1.44338Z" stroke="#B8B9BC" stroke-width="2"/>
    <path d="M13.6887 15.4342V15.5175L13.7622 15.4783L14.7762 14.9374L14.8027 14.9233V14.8933V6.91818L16.3552 7.83577L16.4306 7.88036V7.79273V6.83073V6.80022L16.4035 6.78626L13.0619 5.06784L12.9891 5.03037V5.1123V6.0743V6.10379L13.0149 6.11806L13.6887 6.4907V15.4342Z" fill="#B8B9BC" stroke="#B8B9BC" stroke-width="0.1"/>
    <path d="M8.72225 4.30479L8.7 4.31963V4.34639V16.6558V16.6863L8.72714 16.7003L9.74114 17.2215L9.814 17.259V17.177V11.2564H12.4649H12.5149V11.2064V10.2444V10.1944H12.4649H9.814V5.11124L10.2885 4.73138L12.4397 5.98569L12.5149 6.02953V5.94249V4.86804V4.83864L12.4892 4.82435L10.0373 3.46021L10.0107 3.44538L9.98528 3.46231L8.72225 4.30479Z" fill="#B8B9BC" stroke="#B8B9BC" stroke-width="0.1"/>
    <path d="M4 6.8622L5.26679 6.18143L6.95946 11.5557H7.02703L6.95946 9.82106V5.3264L8 4.64453V16.3668L6.89189 15.6998L5.04054 9.11715H4.97297L5.04054 10.8518V14.8481L4 14.294V6.8622Z" fill="#B8B9BC"/>
</svg>
