<svg width="24" height="24" viewBox="0 0 24 24" fill="none" xmlns="http://www.w3.org/2000/svg">
    <mask id="path-1-inside-1_3635_66130" fill="white">
        <path fill-rule="evenodd" clip-rule="evenodd" d="M12 2C8.13401 2 5.00001 5.13401 5.00001 9V14L3.8174 15.971C3.01757 17.3041 3.9778 19 5.53239 19H18.4676C20.0222 19 20.9824 17.3041 20.1826 15.971L19 14V9C19 5.13401 15.866 2 12 2Z"/>
    </mask>
    <path d="M5.00001 14L6.71499 15.029C6.90149 14.7182 7.00001 14.3625 7.00001 14H5.00001ZM3.8174 15.971L5.53239 17L3.8174 15.971ZM20.1826 15.971L18.4676 17V17L20.1826 15.971ZM19 14H17C17 14.3625 17.0985 14.7182 17.285 15.029L19 14ZM7.00001 9C7.00001 6.23858 9.23858 4 12 4V0C7.02944 0 3.00001 4.02944 3.00001 9H7.00001ZM7.00001 14V9H3.00001V14H7.00001ZM5.53239 17L6.71499 15.029L3.28502 12.971L2.10241 14.942L5.53239 17ZM5.53239 17L5.53239 17L2.10241 14.942C0.502754 17.6081 2.42321 21 5.53239 21V17ZM18.4676 17H5.53239V21H18.4676V17ZM18.4676 17H18.4676V21C21.5768 21 23.4973 17.6081 21.8976 14.942L18.4676 17ZM17.285 15.029L18.4676 17L21.8976 14.942L20.715 12.971L17.285 15.029ZM17 9V14H21V9H17ZM12 4C14.7614 4 17 6.23858 17 9H21C21 4.02944 16.9706 0 12 0V4Z" fill="#1B1E28" mask="url(#path-1-inside-1_3635_66130)"/>
    <mask id="path-3-inside-2_3635_66130" fill="white">
        <path d="M10 20H14C14 21.1046 13.1046 22 12 22C10.8954 22 10 21.1046 10 20Z"/>
    </mask>
    <path d="M10 20H14C14 21.1046 13.1046 22 12 22C10.8954 22 10 21.1046 10 20Z" fill="#D9D9D9"/>
    <path d="M10 22H14V18H10V22ZM12 20V20H8C8 22.2091 9.79086 24 12 24V20ZM12 20V20V24C14.2091 24 16 22.2091 16 20H12Z" fill="#1B1E28" mask="url(#path-3-inside-2_3635_66130)"/>
</svg>
