<svg width="40" height="40" viewBox="0 0 40 40" fill="none" xmlns="http://www.w3.org/2000/svg">
    <g clip-path="url(#clip0_4112_5375)">
        <path d="M26.0911 22.3137L28.2124 24.435C28.6029 24.8256 28.6029 25.4587 28.2124 25.8492L26.7961 27.2655C25.4973 28.5643 23.5761 29.0179 21.8336 28.437C16.9464 26.808 13.1115 22.973 11.4825 18.0859C10.9016 16.3434 11.3551 14.4222 12.6539 13.1234L14.0702 11.7071C14.4608 11.3166 15.0939 11.3166 15.4845 11.7071L17.6058 13.8284C17.9963 14.219 17.9963 14.8521 17.6058 15.2426L16.2901 16.5583C16.2278 16.6206 16.1972 16.7078 16.2069 16.7954C16.6113 20.435 19.4845 23.3081 23.1241 23.7125C23.2117 23.7223 23.2989 23.6917 23.3612 23.6294L24.6768 22.3137C25.0674 21.9232 25.7005 21.9232 26.0911 22.3137Z" stroke="#1B1E28" stroke-width="2"/>
    </g>
    <defs>
        <clipPath id="clip0_4112_5375">
            <rect width="40" height="40" rx="20" fill="white"/>
        </clipPath>
    </defs>
</svg>
