<svg width="40" height="40" viewBox="0 0 40 40" fill="none" xmlns="http://www.w3.org/2000/svg">
    <g clip-path="url(#clip0_4112_5380)">
        <circle cx="20" cy="20" r="9" stroke="#1B1E28" stroke-width="2"/>
        <mask id="mask0_4112_5380" style="mask-type:alpha" maskUnits="userSpaceOnUse" x="10" y="10" width="20" height="20">
            <circle cx="20" cy="20" r="10" fill="#FAFAFA"/>
        </mask>
        <g mask="url(#mask0_4112_5380)">
            <path d="M22.8872 17.8889C22.8872 19.4844 21.5938 20.7778 19.9983 20.7778C18.4028 20.7778 17.1094 19.4844 17.1094 17.8889C17.1094 17.1484 17.3867 16.475 17.8447 15.9632C18.0892 15.69 18.3845 15.4639 18.7149 15.2998C19.1004 15.1082 19.5353 15 19.9983 15C21.5938 15 22.8872 16.2934 22.8872 17.8889Z" stroke="#1B1E28" stroke-width="2"/>
            <path d="M27 27.9987V27.2209C27 25.0731 25.2589 23.332 23.1111 23.332H16.8889C14.7411 23.332 13 25.0731 13 27.2209V27.9987" stroke="#1B1E28" stroke-width="2" stroke-linecap="round"/>
        </g>
    </g>
    <defs>
        <clipPath id="clip0_4112_5380">
            <rect width="40" height="40" rx="20" fill="white"/>
        </clipPath>
    </defs>
</svg>
