<svg width="101" height="120" viewBox="0 0 101 120" fill="none" xmlns="http://www.w3.org/2000/svg">
    <g filter="url(#filter0_ii_3127_125018)">
        <rect x="0.835938" y="34.3254" width="100.039" height="25.651" rx="2.27848" fill="#FF5353"/>
    </g>
    <g filter="url(#filter1_ii_3127_125018)">
        <path d="M11.582 60H90.388V117.722C90.388 118.98 89.3679 120 88.1095 120H13.8605C12.6021 120 11.582 118.98 11.582 117.722V60Z" fill="#FF5353"/>
    </g>
    <g filter="url(#filter2_ii_3127_125018)">
        <path d="M40.1699 34.3254H60.6907V119.829H40.1699V34.3254Z" fill="url(#paint0_linear_3127_125018)"/>
    </g>
    <g filter="url(#filter3_ii_3127_125018)">
        <path d="M9.73226 21.5231L20.0482 5.40804C21.4337 3.24358 23.709 1.56738 26.2425 1.99867C37.5286 3.91996 44.2509 22.1622 45.1902 33.5174C45.2879 34.6989 44.3895 35.7022 43.2075 35.7936C25.1513 37.1898 14.037 32.2564 9.69639 27.9041C7.97461 26.1777 8.41772 23.5766 9.73226 21.5231Z" fill="#D9D9D9"/>
        <path d="M9.73226 21.5231L20.0482 5.40804C21.4337 3.24358 23.709 1.56738 26.2425 1.99867C37.5286 3.91996 44.2509 22.1622 45.1902 33.5174C45.2879 34.6989 44.3895 35.7022 43.2075 35.7936C25.1513 37.1898 14.037 32.2564 9.69639 27.9041C7.97461 26.1777 8.41772 23.5766 9.73226 21.5231Z" fill="url(#paint1_linear_3127_125018)"/>
    </g>
    <path d="M40.0663 15.222C43.9484 22.662 44.7831 30.4644 42.6085 31.5991C40.4338 32.7338 35.5239 27.6224 31.6418 20.1824C27.7596 12.7424 24.9668 3.76594 27.1415 2.63123C29.3161 1.49653 36.1533 6.54402 40.0663 15.222Z" fill="black" fill-opacity="0.1"/>
    <path d="M40.0663 15.222C43.9484 22.662 44.7831 30.4644 42.6085 31.5991C40.4338 32.7338 35.5239 27.6224 31.6418 20.1824C27.7596 12.7424 24.9668 3.76594 27.1415 2.63123C29.3161 1.49653 36.1533 6.54402 40.0663 15.222Z" fill="url(#paint2_linear_3127_125018)"/>
    <path d="M40.0663 15.222C43.9484 22.662 44.7831 30.4644 42.6085 31.5991C40.4338 32.7338 35.5239 27.6224 31.6418 20.1824C27.7596 12.7424 24.9668 3.76594 27.1415 2.63123C29.3161 1.49653 36.1533 6.54402 40.0663 15.222Z" fill="black" fill-opacity="0.2"/>
    <g filter="url(#filter4_ii_3127_125018)">
        <path d="M88.4982 21.5231L78.1823 5.40804C76.7967 3.24358 74.5215 1.56738 71.988 1.99867C60.7019 3.91996 53.9795 22.1622 53.0403 33.5174C52.9425 34.6989 53.8409 35.7022 55.0229 35.7936C73.0792 37.1898 84.1934 32.2564 88.5341 27.9041C90.2559 26.1777 89.8128 23.5766 88.4982 21.5231Z" fill="#D9D9D9"/>
        <path d="M88.4982 21.5231L78.1823 5.40804C76.7967 3.24358 74.5215 1.56738 71.988 1.99867C60.7019 3.91996 53.9795 22.1622 53.0403 33.5174C52.9425 34.6989 53.8409 35.7022 55.0229 35.7936C73.0792 37.1898 84.1934 32.2564 88.5341 27.9041C90.2559 26.1777 89.8128 23.5766 88.4982 21.5231Z" fill="url(#paint3_linear_3127_125018)"/>
    </g>
    <path d="M58.1642 15.222C54.2821 22.662 53.4474 30.4644 55.622 31.5991C57.7966 32.7338 62.7066 27.6224 66.5887 20.1824C70.4708 12.7424 73.2637 3.76594 71.089 2.63123C68.9144 1.49653 62.0771 6.54402 58.1642 15.222Z" fill="black" fill-opacity="0.1"/>
    <path d="M58.1642 15.222C54.2821 22.662 53.4474 30.4644 55.622 31.5991C57.7966 32.7338 62.7066 27.6224 66.5887 20.1824C70.4708 12.7424 73.2637 3.76594 71.089 2.63123C68.9144 1.49653 62.0771 6.54402 58.1642 15.222Z" fill="url(#paint4_linear_3127_125018)"/>
    <path d="M58.1642 15.222C54.2821 22.662 53.4474 30.4644 55.622 31.5991C57.7966 32.7338 62.7066 27.6224 66.5887 20.1824C70.4708 12.7424 73.2637 3.76594 71.089 2.63123C68.9144 1.49653 62.0771 6.54402 58.1642 15.222Z" fill="black" fill-opacity="0.2"/>
    <g filter="url(#filter5_ii_3127_125018)">
        <rect x="41.0234" y="24.9194" width="17.9557" height="11.1154" rx="2.27848" fill="#D9D9D9"/>
        <rect x="41.0234" y="24.9194" width="17.9557" height="11.1154" rx="2.27848" fill="url(#paint5_linear_3127_125018)"/>
    </g>
    <defs>
        <filter id="filter0_ii_3127_125018" x="0.835938" y="33.5027" width="100.039" height="27.2964" filterUnits="userSpaceOnUse" color-interpolation-filters="sRGB">
            <feFlood flood-opacity="0" result="BackgroundImageFix"/>
            <feBlend mode="normal" in="SourceGraphic" in2="BackgroundImageFix" result="shape"/>
            <feColorMatrix in="SourceAlpha" type="matrix" values="0 0 0 0 0 0 0 0 0 0 0 0 0 0 0 0 0 0 127 0" result="hardAlpha"/>
            <feOffset dy="-1.64557"/>
            <feGaussianBlur stdDeviation="0.411392"/>
            <feComposite in2="hardAlpha" operator="arithmetic" k2="-1" k3="1"/>
            <feColorMatrix type="matrix" values="0 0 0 0 0 0 0 0 0 0 0 0 0 0 0 0 0 0 0.25 0"/>
            <feBlend mode="normal" in2="shape" result="effect1_innerShadow_3127_125018"/>
            <feColorMatrix in="SourceAlpha" type="matrix" values="0 0 0 0 0 0 0 0 0 0 0 0 0 0 0 0 0 0 127 0" result="hardAlpha"/>
            <feOffset dy="1.64557"/>
            <feGaussianBlur stdDeviation="0.411392"/>
            <feComposite in2="hardAlpha" operator="arithmetic" k2="-1" k3="1"/>
            <feColorMatrix type="matrix" values="0 0 0 0 1 0 0 0 0 1 0 0 0 0 1 0 0 0 0.2 0"/>
            <feBlend mode="normal" in2="effect1_innerShadow_3127_125018" result="effect2_innerShadow_3127_125018"/>
        </filter>
        <filter id="filter1_ii_3127_125018" x="11.582" y="59.1772" width="78.8066" height="61.6456" filterUnits="userSpaceOnUse" color-interpolation-filters="sRGB">
            <feFlood flood-opacity="0" result="BackgroundImageFix"/>
            <feBlend mode="normal" in="SourceGraphic" in2="BackgroundImageFix" result="shape"/>
            <feColorMatrix in="SourceAlpha" type="matrix" values="0 0 0 0 0 0 0 0 0 0 0 0 0 0 0 0 0 0 127 0" result="hardAlpha"/>
            <feOffset dy="-1.64557"/>
            <feGaussianBlur stdDeviation="0.411392"/>
            <feComposite in2="hardAlpha" operator="arithmetic" k2="-1" k3="1"/>
            <feColorMatrix type="matrix" values="0 0 0 0 0 0 0 0 0 0 0 0 0 0 0 0 0 0 0.25 0"/>
            <feBlend mode="normal" in2="shape" result="effect1_innerShadow_3127_125018"/>
            <feColorMatrix in="SourceAlpha" type="matrix" values="0 0 0 0 0 0 0 0 0 0 0 0 0 0 0 0 0 0 127 0" result="hardAlpha"/>
            <feOffset dy="1.64557"/>
            <feGaussianBlur stdDeviation="0.411392"/>
            <feComposite in2="hardAlpha" operator="arithmetic" k2="-1" k3="1"/>
            <feColorMatrix type="matrix" values="0 0 0 0 1 0 0 0 0 1 0 0 0 0 1 0 0 0 0.08 0"/>
            <feBlend mode="normal" in2="effect1_innerShadow_3127_125018" result="effect2_innerShadow_3127_125018"/>
        </filter>
        <filter id="filter2_ii_3127_125018" x="40.1699" y="32.6799" width="20.5215" height="87.9715" filterUnits="userSpaceOnUse" color-interpolation-filters="sRGB">
            <feFlood flood-opacity="0" result="BackgroundImageFix"/>
            <feBlend mode="normal" in="SourceGraphic" in2="BackgroundImageFix" result="shape"/>
            <feColorMatrix in="SourceAlpha" type="matrix" values="0 0 0 0 0 0 0 0 0 0 0 0 0 0 0 0 0 0 127 0" result="hardAlpha"/>
            <feOffset dy="-1.64557"/>
            <feGaussianBlur stdDeviation="1.13924"/>
            <feComposite in2="hardAlpha" operator="arithmetic" k2="-1" k3="1"/>
            <feColorMatrix type="matrix" values="0 0 0 0 0 0 0 0 0 0 0 0 0 0 0 0 0 0 0.25 0"/>
            <feBlend mode="normal" in2="shape" result="effect1_innerShadow_3127_125018"/>
            <feColorMatrix in="SourceAlpha" type="matrix" values="0 0 0 0 0 0 0 0 0 0 0 0 0 0 0 0 0 0 127 0" result="hardAlpha"/>
            <feOffset dy="1.64557"/>
            <feGaussianBlur stdDeviation="0.411392"/>
            <feComposite in2="hardAlpha" operator="arithmetic" k2="-1" k3="1"/>
            <feColorMatrix type="matrix" values="0 0 0 0 1 0 0 0 0 1 0 0 0 0 1 0 0 0 0.2 0"/>
            <feBlend mode="normal" in2="effect1_innerShadow_3127_125018" result="effect2_innerShadow_3127_125018"/>
        </filter>
        <filter id="filter3_ii_3127_125018" x="8.56836" y="1.10788" width="36.6289" height="35.7496" filterUnits="userSpaceOnUse" color-interpolation-filters="sRGB">
            <feFlood flood-opacity="0" result="BackgroundImageFix"/>
            <feBlend mode="normal" in="SourceGraphic" in2="BackgroundImageFix" result="shape"/>
            <feColorMatrix in="SourceAlpha" type="matrix" values="0 0 0 0 0 0 0 0 0 0 0 0 0 0 0 0 0 0 127 0" result="hardAlpha"/>
            <feOffset dy="-1.64557"/>
            <feGaussianBlur stdDeviation="0.411392"/>
            <feComposite in2="hardAlpha" operator="arithmetic" k2="-1" k3="1"/>
            <feColorMatrix type="matrix" values="0 0 0 0 0 0 0 0 0 0 0 0 0 0 0 0 0 0 0.25 0"/>
            <feBlend mode="normal" in2="shape" result="effect1_innerShadow_3127_125018"/>
            <feColorMatrix in="SourceAlpha" type="matrix" values="0 0 0 0 0 0 0 0 0 0 0 0 0 0 0 0 0 0 127 0" result="hardAlpha"/>
            <feOffset dy="1.64557"/>
            <feGaussianBlur stdDeviation="0.411392"/>
            <feComposite in2="hardAlpha" operator="arithmetic" k2="-1" k3="1"/>
            <feColorMatrix type="matrix" values="0 0 0 0 1 0 0 0 0 1 0 0 0 0 1 0 0 0 0.08 0"/>
            <feBlend mode="normal" in2="effect1_innerShadow_3127_125018" result="effect2_innerShadow_3127_125018"/>
        </filter>
        <filter id="filter4_ii_3127_125018" x="53.0332" y="1.10788" width="36.6289" height="35.7496" filterUnits="userSpaceOnUse" color-interpolation-filters="sRGB">
            <feFlood flood-opacity="0" result="BackgroundImageFix"/>
            <feBlend mode="normal" in="SourceGraphic" in2="BackgroundImageFix" result="shape"/>
            <feColorMatrix in="SourceAlpha" type="matrix" values="0 0 0 0 0 0 0 0 0 0 0 0 0 0 0 0 0 0 127 0" result="hardAlpha"/>
            <feOffset dy="-1.64557"/>
            <feGaussianBlur stdDeviation="0.411392"/>
            <feComposite in2="hardAlpha" operator="arithmetic" k2="-1" k3="1"/>
            <feColorMatrix type="matrix" values="0 0 0 0 0 0 0 0 0 0 0 0 0 0 0 0 0 0 0.25 0"/>
            <feBlend mode="normal" in2="shape" result="effect1_innerShadow_3127_125018"/>
            <feColorMatrix in="SourceAlpha" type="matrix" values="0 0 0 0 0 0 0 0 0 0 0 0 0 0 0 0 0 0 127 0" result="hardAlpha"/>
            <feOffset dy="1.64557"/>
            <feGaussianBlur stdDeviation="0.411392"/>
            <feComposite in2="hardAlpha" operator="arithmetic" k2="-1" k3="1"/>
            <feColorMatrix type="matrix" values="0 0 0 0 1 0 0 0 0 1 0 0 0 0 1 0 0 0 0.08 0"/>
            <feBlend mode="normal" in2="effect1_innerShadow_3127_125018" result="effect2_innerShadow_3127_125018"/>
        </filter>
        <filter id="filter5_ii_3127_125018" x="41.0234" y="23.2739" width="17.9551" height="13.5838" filterUnits="userSpaceOnUse" color-interpolation-filters="sRGB">
            <feFlood flood-opacity="0" result="BackgroundImageFix"/>
            <feBlend mode="normal" in="SourceGraphic" in2="BackgroundImageFix" result="shape"/>
            <feColorMatrix in="SourceAlpha" type="matrix" values="0 0 0 0 0 0 0 0 0 0 0 0 0 0 0 0 0 0 127 0" result="hardAlpha"/>
            <feOffset dy="-1.64557"/>
            <feGaussianBlur stdDeviation="1.13924"/>
            <feComposite in2="hardAlpha" operator="arithmetic" k2="-1" k3="1"/>
            <feColorMatrix type="matrix" values="0 0 0 0 0 0 0 0 0 0 0 0 0 0 0 0 0 0 0.25 0"/>
            <feBlend mode="normal" in2="shape" result="effect1_innerShadow_3127_125018"/>
            <feColorMatrix in="SourceAlpha" type="matrix" values="0 0 0 0 0 0 0 0 0 0 0 0 0 0 0 0 0 0 127 0" result="hardAlpha"/>
            <feOffset dy="1.64557"/>
            <feGaussianBlur stdDeviation="0.411392"/>
            <feComposite in2="hardAlpha" operator="arithmetic" k2="-1" k3="1"/>
            <feColorMatrix type="matrix" values="0 0 0 0 1 0 0 0 0 1 0 0 0 0 1 0 0 0 0.2 0"/>
            <feBlend mode="normal" in2="effect1_innerShadow_3127_125018" result="effect2_innerShadow_3127_125018"/>
        </filter>
        <linearGradient id="paint0_linear_3127_125018" x1="50.4303" y1="34.3254" x2="50.4303" y2="128.379" gradientUnits="userSpaceOnUse">
            <stop stop-color="#5C91F8"/>
            <stop offset="0.635" stop-color="#8EB4FF"/>
            <stop offset="1" stop-color="#5C91F8"/>
        </linearGradient>
        <linearGradient id="paint1_linear_3127_125018" x1="15.1708" y1="10.1448" x2="39.1776" y2="37.9766" gradientUnits="userSpaceOnUse">
            <stop stop-color="#5C91F8"/>
            <stop offset="0.48" stop-color="#C4D8FF"/>
            <stop offset="1" stop-color="#5C91F8"/>
        </linearGradient>
        <linearGradient id="paint2_linear_3127_125018" x1="28.1561" y1="3.10231" x2="51.4263" y2="19.2023" gradientUnits="userSpaceOnUse">
            <stop stop-color="#5C91F8"/>
            <stop offset="0.489478" stop-color="#B2CCFF"/>
            <stop offset="1" stop-color="#5C91F8"/>
        </linearGradient>
        <linearGradient id="paint3_linear_3127_125018" x1="83.0597" y1="10.1448" x2="59.0529" y2="37.9766" gradientUnits="userSpaceOnUse">
            <stop stop-color="#5C91F8"/>
            <stop offset="0.48" stop-color="#C4D8FF"/>
            <stop offset="1" stop-color="#5C91F8"/>
        </linearGradient>
        <linearGradient id="paint4_linear_3127_125018" x1="70.0744" y1="3.10231" x2="46.8042" y2="19.2023" gradientUnits="userSpaceOnUse">
            <stop stop-color="#5C91F8"/>
            <stop offset="0.489478" stop-color="#B2CCFF"/>
            <stop offset="1" stop-color="#5C91F8"/>
        </linearGradient>
        <linearGradient id="paint5_linear_3127_125018" x1="50.0013" y1="24.9194" x2="50.0013" y2="37.1464" gradientUnits="userSpaceOnUse">
            <stop stop-color="#5C91F8"/>
            <stop offset="0.635" stop-color="#8EB4FF"/>
            <stop offset="1" stop-color="#5C91F8"/>
        </linearGradient>
    </defs>
</svg>
