<svg width="24" height="24" viewBox="0 0 24 24" fill="none" xmlns="http://www.w3.org/2000/svg">
    <path d="M15.5912 21.66C15.4012 21.66 15.2113 21.59 15.0613 21.44C14.7713 21.15 14.7713 20.67 15.0613 20.38L17.8812 17.56C18.1712 17.27 18.6513 17.27 18.9413 17.56C19.2313 17.85 19.2313 18.33 18.9413 18.62L16.1213 21.44C15.9713 21.59 15.7812 21.66 15.5912 21.66Z" fill="#292D32"/>
    <path d="M18.4112 21.66C18.2212 21.66 18.0312 21.59 17.8812 21.44L15.0613 18.62C14.7713 18.33 14.7713 17.85 15.0613 17.56C15.3512 17.27 15.8313 17.27 16.1213 17.56L18.9413 20.38C19.2313 20.67 19.2313 21.15 18.9413 21.44C18.7913 21.59 18.6012 21.66 18.4112 21.66Z" fill="#292D32"/>
    <path d="M12.1586 11.62C12.1286 11.62 12.1086 11.62 12.0786 11.62C12.0286 11.61 11.9586 11.61 11.8986 11.62C8.99859 11.53 6.80859 9.25 6.80859 6.44C6.80859 3.58 9.13859 1.25 11.9986 1.25C14.8586 1.25 17.1886 3.58 17.1886 6.44C17.1786 9.25 14.9786 11.53 12.1886 11.62C12.1786 11.62 12.1686 11.62 12.1586 11.62ZM11.9986 2.75C9.96859 2.75 8.30859 4.41 8.30859 6.44C8.30859 8.44 9.86859 10.05 11.8586 10.12C11.9186 10.11 12.0486 10.11 12.1786 10.12C14.1386 10.03 15.6786 8.42 15.6886 6.44C15.6886 4.41 14.0286 2.75 11.9986 2.75Z" fill="#292D32"/>
    <path d="M12.0019 22.56C9.96187 22.56 8.03188 22.03 6.57188 21.05C5.18188 20.12 4.42188 18.85 4.42188 17.48C4.42188 16.11 5.19188 14.85 6.57188 13.93C9.56188 11.93 14.4219 11.93 17.4119 13.93C17.7519 14.16 17.8519 14.63 17.6219 14.97C17.3919 15.32 16.9219 15.41 16.5819 15.18C14.0919 13.52 9.89188 13.52 7.40188 15.18C6.44187 15.82 5.92188 16.63 5.92188 17.48C5.92188 18.33 6.45187 19.16 7.40188 19.8C8.61188 20.61 10.2419 21.05 11.9919 21.05C12.4019 21.05 12.7419 21.39 12.7419 21.8C12.7419 22.21 12.4119 22.56 12.0019 22.56Z" fill="#292D32"/>
</svg>
