<svg width="20" height="20" viewBox="0 0 20 20" fill="none" xmlns="http://www.w3.org/2000/svg">
    <g clip-path="url(#clip0_3379_24155)">
        <path d="M14.168 8.33317C14.168 11.5548 11.5563 14.1665 8.33464 14.1665C5.11297 14.1665 2.5013 11.5548 2.5013 8.33317C2.5013 6.83862 3.06227 5.47707 3.98646 4.44449C4.47936 3.89377 5.07498 3.43749 5.74253 3.10574C6.52244 2.71816 7.40185 2.49984 8.33464 2.49984C11.5563 2.49984 14.168 5.11151 14.168 8.33317Z" stroke="#B8B9BC" stroke-width="1.66667"/>
        <path d="M11.9475 13.0544L13.1267 11.8752L17.2687 16.1103C17.5882 16.4369 17.5853 16.9598 17.2622 17.2828C16.9341 17.611 16.4011 17.608 16.0766 17.2762L11.9475 13.0544Z" fill="#B8B9BC"/>
    </g>
    <defs>
        <clipPath id="clip0_3379_24155">
            <rect width="20" height="20" fill="white"/>
        </clipPath>
    </defs>
</svg>
