<svg width="24" height="24" viewBox="0 0 24 24" fill="none" xmlns="http://www.w3.org/2000/svg">
    <g clip-path="url(#clip0_3615_20422)">
        <path d="M18.9894 6.23097L19.7943 7.5004L20.4912 8.83218C20.6852 9.20291 20.6237 9.65575 20.338 9.96137C19.2651 11.1087 19.2651 12.8912 20.338 14.0386C20.6237 14.3442 20.6852 14.797 20.4912 15.1677L21.3772 15.6314L20.4912 15.1677L19.7943 16.4995L18.9894 17.769C18.7653 18.1223 18.3424 18.2955 17.9349 18.2008C16.4048 17.8454 14.8611 18.7367 14.4039 20.2394C14.2821 20.6397 13.9207 20.9194 13.5026 20.9367L12.0008 20.9991L10.499 20.9367C10.0809 20.9194 9.7195 20.6397 9.59771 20.2394C9.1405 18.7367 7.59681 17.8454 6.06677 18.2008C5.6592 18.2955 5.23631 18.1223 5.01224 17.769L4.20733 16.4995L3.51044 15.1677C3.31644 14.797 3.37789 14.3442 3.66367 14.0386C4.7365 12.8912 4.7365 11.1087 3.66367 9.96137C3.37789 9.65575 3.31644 9.20291 3.51044 8.83218L2.8539 8.48863L3.51044 8.83218L4.20733 7.50039L5.01224 6.23097C5.23631 5.8776 5.6592 5.7044 6.06677 5.79908C7.59681 6.15451 9.14051 5.26326 9.59771 3.76049C9.7195 3.36019 10.0809 3.08055 10.499 3.06319L12.0008 3.00083L13.5026 3.06319C13.9207 3.08055 14.2821 3.36019 14.4039 3.76049C14.8611 5.26326 16.4048 6.15451 17.9349 5.79908C18.3424 5.7044 18.7653 5.87761 18.9894 6.23097Z" stroke="#1B1E28" stroke-width="2"/>
        <circle cx="12.001" cy="12" r="3.35583" transform="rotate(-60 12.001 12)" stroke="#1B1E28" stroke-width="2"/>
    </g>
    <defs>
        <clipPath id="clip0_3615_20422">
            <rect width="24" height="24" fill="white"/>
        </clipPath>
    </defs>
</svg>
