<svg width="16" height="16" viewBox="0 0 16 16" fill="none" xmlns="http://www.w3.org/2000/svg">
    <path d="M12 14.6666C11.4444 14.6666 10.9722 14.4721 10.5833 14.0833C10.1944 13.6944 10 13.2221 10 12.6666C10 12.5888 10.0056 12.5083 10.0167 12.4249C10.0278 12.3416 10.0444 12.2666 10.0667 12.1999L5.36667 9.46658C5.17778 9.63325 4.96667 9.76381 4.73333 9.85825C4.5 9.9527 4.25556 9.99992 4 9.99992C3.44444 9.99992 2.97222 9.80547 2.58333 9.41658C2.19444 9.0277 2 8.55547 2 7.99992C2 7.44436 2.19444 6.97214 2.58333 6.58325C2.97222 6.19436 3.44444 5.99992 4 5.99992C4.25556 5.99992 4.5 6.04714 4.73333 6.14158C4.96667 6.23603 5.17778 6.36659 5.36667 6.53325L10.0667 3.79992C10.0444 3.73325 10.0278 3.65825 10.0167 3.57492C10.0056 3.49159 10 3.41103 10 3.33325C10 2.7777 10.1944 2.30547 10.5833 1.91659C10.9722 1.5277 11.4444 1.33325 12 1.33325C12.5556 1.33325 13.0278 1.5277 13.4167 1.91659C13.8056 2.30547 14 2.7777 14 3.33325C14 3.88881 13.8056 4.36103 13.4167 4.74992C13.0278 5.13881 12.5556 5.33325 12 5.33325C11.7444 5.33325 11.5 5.28603 11.2667 5.19159C11.0333 5.09714 10.8222 4.96659 10.6333 4.79992L5.93333 7.53325C5.95556 7.59992 5.97222 7.67492 5.98333 7.75825C5.99444 7.84158 6 7.92214 6 7.99992C6 8.0777 5.99444 8.15825 5.98333 8.24158C5.97222 8.32492 5.95556 8.39992 5.93333 8.46658L10.6333 11.1999C10.8222 11.0333 11.0333 10.9027 11.2667 10.8083C11.5 10.7138 11.7444 10.6666 12 10.6666C12.5556 10.6666 13.0278 10.861 13.4167 11.2499C13.8056 11.6388 14 12.111 14 12.6666C14 13.2221 13.8056 13.6944 13.4167 14.0833C13.0278 14.4721 12.5556 14.6666 12 14.6666Z" fill="black"/>
</svg>
