<svg width="32" height="32" viewBox="0 0 32 32" fill="none" xmlns="http://www.w3.org/2000/svg">
    <mask id="path-1-inside-1_3127_84594" fill="white">
        <path fill-rule="evenodd" clip-rule="evenodd" d="M15.5223 5.46417L11.3311 9.33302L5.33073 9.33302C3.85797 9.33302 2.66406 10.5269 2.66406 11.9997V19.9997C2.66406 21.4724 3.85797 22.6663 5.33073 22.6663L11.3311 22.6663L15.5223 26.5352C17.2305 28.112 19.9977 26.9004 19.9977 24.5757V7.42364C19.9977 5.09896 17.2305 3.88738 15.5223 5.46417Z"/>
    </mask>
    <path d="M11.3311 9.33302V11.333H12.113L12.6876 10.8026L11.3311 9.33302ZM15.5223 5.46417L14.1657 3.99456L15.5223 5.46417ZM5.33073 9.33302L5.33073 7.33302H5.33073V9.33302ZM5.33073 22.6663L5.33073 20.6663H5.33073V22.6663ZM11.3311 22.6663L12.6876 21.1967L12.113 20.6663H11.3311L11.3311 22.6663ZM15.5223 26.5352L14.1657 28.0048H14.1657L15.5223 26.5352ZM12.6876 10.8026L16.8789 6.93378L14.1657 3.99456L9.97449 7.86341L12.6876 10.8026ZM5.33073 11.333L11.3311 11.333V7.33302L5.33073 7.33302L5.33073 11.333ZM4.66406 11.9997C4.66406 11.6315 4.96254 11.333 5.33073 11.333V7.33302C2.7534 7.33302 0.664062 9.42235 0.664062 11.9997H4.66406ZM4.66406 19.9997V11.9997H0.664062V19.9997H4.66406ZM5.33073 20.6663C4.96254 20.6663 4.66406 20.3679 4.66406 19.9997H0.664062C0.664062 22.577 2.7534 24.6663 5.33073 24.6663V20.6663ZM11.3311 20.6663L5.33073 20.6663L5.33073 24.6663L11.3311 24.6663L11.3311 20.6663ZM16.8789 25.0656L12.6876 21.1967L9.97449 24.136L14.1657 28.0048L16.8789 25.0656ZM17.9977 24.5757C17.9977 25.1569 17.3059 25.4598 16.8789 25.0656L14.1657 28.0048C17.1551 30.7642 21.9977 28.6439 21.9977 24.5757H17.9977ZM17.9977 7.42364V24.5757H21.9977V7.42364H17.9977ZM16.8789 6.93378C17.3059 6.53958 17.9977 6.84248 17.9977 7.42364H21.9977C21.9977 3.35544 17.1551 1.23519 14.1657 3.99456L16.8789 6.93378Z" fill="#66686F" mask="url(#path-1-inside-1_3127_84594)"/>
    <path d="M22.668 11.333V11.333C24.9697 14.0184 24.9697 17.981 22.668 20.6663V20.6663" stroke="#66686F" stroke-width="2" stroke-linecap="round" stroke-linejoin="round"/>
    <path d="M26.668 9.33301V9.33301C29.13 13.4365 29.13 18.5629 26.668 22.6663V22.6663" stroke="#66686F" stroke-width="2" stroke-linecap="round" stroke-linejoin="round"/>
</svg>
