<svg width="24" height="24" viewBox="0 0 24 24" fill="none" xmlns="http://www.w3.org/2000/svg">
    <rect x="11.3323" y="9.99634" width="10.839" height="10.839" rx="1.14429" stroke="#66686F" stroke-width="1.71143"/>
    <path d="M17.0186 13.5438L15.3866 18.8306H13.6535L16.113 12.1371H17.2117L17.0186 13.5438ZM18.3702 18.8306L16.7336 13.5438L16.5221 12.1371H17.6346L20.1079 18.8306H18.3702ZM18.3058 16.3343V17.5801H14.8717V16.3343H18.3058Z" fill="#66686F"/>
    <rect x="2.20728" y="2.88892" width="10.839" height="10.839" rx="1.14429" fill="white"/>
    <rect x="2.20728" y="2.88892" width="10.839" height="10.839" rx="1.14429" stroke="#66686F" stroke-width="1.71143"/>
    <rect x="4.39062" y="6.13477" width="6.47579" height="1.24569" fill="#66686F"/>
    <path d="M5.62047 7.14708C5.52414 6.8471 5.68922 6.52583 5.9892 6.4295C6.28918 6.33317 6.61045 6.49825 6.70678 6.79823L5.62047 7.14708ZM10.2176 10.3571L10.7146 10.6372L10.1544 11.6311L9.65741 11.351L10.2176 10.3571ZM6.70678 6.79823C6.77166 7.00025 6.94862 7.29783 7.24083 7.66552C7.5241 8.02198 7.88299 8.40419 8.26408 8.77165C9.03739 9.5173 9.84272 10.1458 10.2176 10.3571L9.65741 11.351C9.15699 11.069 8.26975 10.3621 7.47213 9.59298C7.06776 9.20307 6.67159 8.78308 6.34759 8.37537C6.03251 7.97889 5.74997 7.55033 5.62047 7.14708L6.70678 6.79823Z" fill="#66686F"/>
    <path d="M9.64125 7.14708C9.73758 6.8471 9.57249 6.52583 9.27252 6.4295C8.97254 6.33317 8.65127 6.49825 8.55494 6.79823L9.64125 7.14708ZM5.04412 10.3571L4.54714 10.6372L5.10733 11.6311L5.60431 11.351L5.04412 10.3571ZM8.55494 6.79823C8.49006 7.00025 8.31309 7.29783 8.02089 7.66552C7.73762 8.02198 7.37873 8.40419 6.99764 8.77165C6.22433 9.5173 5.419 10.1458 5.04412 10.3571L5.60431 11.351C6.10473 11.069 6.99197 10.3621 7.78959 9.59298C8.19396 9.20307 8.59013 8.78308 8.91413 8.37537C9.22921 7.97889 9.51175 7.55033 9.64125 7.14708L8.55494 6.79823Z" fill="#66686F"/>
    <rect x="6.99219" y="4.7168" width="1.2702" height="1.41727" fill="#66686F"/>
</svg>
