<svg width="154" height="154" viewBox="0 0 154 154" fill="none" xmlns="http://www.w3.org/2000/svg">
    <path d="M82.1323 92.8541H25.2474C19.4362 92.8541 16.7898 90.4259 15.5893 88.3797C12.861 83.6325 15.5893 77.8212 16.3259 76.7026C16.6533 76.0751 25.684 58.2048 27.5665 54.6853C28.8372 52.446 30.7157 50.612 32.9848 49.3954C35.254 48.1787 37.8211 47.6291 40.3895 47.81H59.4875C60.3211 47.6953 61.1169 47.3893 61.8126 46.916C62.5083 46.4427 63.0852 45.815 63.4981 45.0817C63.4981 44.8635 67.7542 35.6419 71.6829 28.4392C72.9697 25.8159 74.9266 23.579 77.3556 21.9549C79.7845 20.3308 82.5994 19.3771 85.5154 19.1903H112.143C113.646 19.0817 115.152 19.3462 116.528 19.9602C117.903 20.5742 119.106 21.5188 120.028 22.7098C120.882 24.0599 121.422 25.585 121.606 27.1719C121.79 28.7589 121.614 30.367 121.092 31.8768L120.874 32.4498L112.444 49.5561H103.959L113.235 29.2031C113.358 28.692 113.358 28.1591 113.235 27.648C113.235 27.648 112.88 27.648 112.116 27.648H85.2152C83.8189 27.8371 82.4951 28.3835 81.3718 29.2343C80.2486 30.0851 79.364 31.2114 78.8038 32.5043C75.0933 39.4615 70.8917 48.7377 70.8644 48.8741C69.7593 51.001 68.1132 52.7993 66.092 54.0877C64.0708 55.3761 61.7458 56.1092 59.3511 56.2132H39.9256C38.9423 56.1549 37.9609 56.3561 37.0799 56.7967C36.1988 57.2372 35.449 57.9016 34.9056 58.7232C33.0504 62.1608 23.7742 80.5495 23.6923 80.5495C22.9557 81.9409 22.3827 83.2778 23.1194 84.0144C23.1194 84.0144 23.3649 84.5055 25.2474 84.5055H82.1323C83.7169 84.2899 85.221 83.6764 86.5044 82.7222C87.7878 81.768 88.8085 80.5043 89.4714 79.0489C93.7275 71.4916 97.8472 64.0706 97.9018 63.9615H106.332C106.141 64.4253 101.148 75.2293 96.7013 83.0595C95.3318 85.8161 93.2683 88.1687 90.7138 89.8861C88.1594 91.6034 85.2019 92.6263 82.1323 92.8541Z" fill="url(#paint0_linear_3292_29767)"/>
    <path d="M73.1855 52.6382H130.07C135.882 52.6382 138.528 55.0664 139.729 57.1126C142.457 61.8598 139.729 67.6711 138.965 68.7897C138.664 69.4172 129.634 87.2874 127.724 90.8069C126.455 93.0557 124.574 94.8981 122.299 96.12C120.024 97.3419 117.449 97.8931 114.874 97.7095H95.7758C94.947 97.8282 94.1567 98.136 93.466 98.6091C92.7752 99.0822 92.2026 99.7079 91.7925 100.438C91.7925 100.656 87.5091 109.878 83.6076 117.08C82.3254 119.702 80.3733 121.937 77.949 123.562C75.5248 125.186 72.7144 126.141 69.8025 126.329H43.1471C41.6482 126.441 40.1452 126.177 38.7734 125.563C37.4017 124.948 36.2045 124.002 35.2896 122.81C34.4346 121.46 33.8927 119.936 33.7039 118.35C33.515 116.764 33.684 115.155 34.1983 113.643L34.4166 113.07L42.847 95.9361H51.3319L42.0558 116.289C41.9467 116.802 41.9467 117.332 42.0558 117.844C42.0558 117.844 42.4104 117.844 43.1744 117.844H70.1299C71.5262 117.655 72.85 117.109 73.9733 116.258C75.0965 115.407 75.9811 114.281 76.5413 112.988C80.2245 106.031 84.4261 96.6182 84.4807 96.6182C85.5835 94.4951 87.2253 92.6994 89.2413 91.4112C91.2574 90.1231 93.5768 89.3878 95.9667 89.2791H115.392C116.352 89.3347 117.31 89.1431 118.174 88.7228C119.039 88.3024 119.781 87.6673 120.33 86.8782C122.158 83.4406 131.435 65.0519 131.544 65.0519C132.28 63.6605 132.826 62.1872 132.117 61.587C132.117 61.587 131.844 61.0959 129.989 61.0959H73.2674C71.6868 61.3134 70.1872 61.928 68.9085 62.8822C67.6298 63.8364 66.6139 65.0991 65.9556 66.5525C61.6722 74.1098 57.5797 81.4762 57.5797 81.5853H49.1493C49.3676 81.1215 54.3331 70.3175 58.7802 62.4873C60.1328 59.7463 62.1689 57.4001 64.6921 55.6749C67.2153 53.9498 70.1405 52.9039 73.1855 52.6382Z" fill="url(#paint1_linear_3292_29767)"/>
    <defs>
        <linearGradient id="paint0_linear_3292_29767" x1="14.3889" y1="56.0495" x2="121.665" y2="56.0495" gradientUnits="userSpaceOnUse">
            <stop stop-color="#0069E9"/>
            <stop offset="0.82" stop-color="#02B8FA"/>
            <stop offset="0.91" stop-color="#02C1FC"/>
        </linearGradient>
        <linearGradient id="paint1_linear_3292_29767" x1="87.2635" y1="52.6382" x2="87.2635" y2="126.22" gradientUnits="userSpaceOnUse">
            <stop stop-color="#02C3FD"/>
            <stop offset="0.75" stop-color="#0274EC"/>
            <stop offset="0.91" stop-color="#0262E8"/>
        </linearGradient>
    </defs>
</svg>
