<svg width="106" height="27" viewBox="0 0 106 27" fill="none" xmlns="http://www.w3.org/2000/svg">
    <path d="M21.8434 0.657227V17.4049C21.8434 23.0482 17.5518 26.8263 11.1514 26.806C4.75112 26.7857 0.5 23.0482 0.5 17.4049V0.657227H5.846V16.9723C5.846 19.9528 7.96818 22.0885 11.1514 22.1088C14.3347 22.1291 16.4839 19.9528 16.4637 16.9723V0.657227H21.8434Z" fill="#161616"/>
    <path d="M47.7067 26.4546H43.0771L31.743 10.0651H31.5335V26.4546H26.1875V0.657227H30.9185L42.1782 17.0467H42.4283V0.657227H47.7337L47.7067 26.4546Z" fill="#161616"/>
    <path d="M57.4007 26.4546H52.0547V0.657227H57.4007V26.4546Z" fill="#161616"/>
    <path d="M73.3631 5.06447C69.3553 5.06447 66.6992 8.15312 66.6992 13.5802C66.6992 19.1425 69.4026 22.0825 73.3225 22.096C76.2625 22.096 78.4725 20.4807 78.9929 17.6826H84.3998C83.8118 22.4542 79.804 26.7999 73.2482 26.7999C66.3545 26.7999 61.2383 21.9405 61.2383 13.5464C61.2383 5.15233 66.4491 0.333496 73.255 0.333496C79.2025 0.333496 83.6969 3.71276 84.4065 9.66703H78.9997C78.5604 6.78789 76.3706 5.06447 73.3631 5.06447Z" fill="#161616"/>
    <path d="M88.1504 0.657227H105.466V5.06379H93.4896V11.3492H104.574V15.7626H93.4896V22.0345H105.5V26.4546H88.1504V0.657227Z" fill="#161616"/>
</svg>
