<svg width="74" height="74" viewBox="0 0 74 74" fill="none" xmlns="http://www.w3.org/2000/svg">

    <circle data-figma-bg-blur-radius="8" cx="39" cy="38" r="34" stroke="#6385EF"
        stroke-width="2" />

    <path fill-rule="evenodd" clip-rule="evenodd"
        d="M40.6547 26.5721C40.4439 26.5252 40.2249 26.5005 40 26.5005H25C23.3431 26.5005 22 27.8436 22 29.5005V44.5005C22 44.7253 22.0247 44.9444 22.0716 46.1552L24.25 46.9768V29.5005C24.25 29.0863 24.5858 28.7505 25 28.7505H38.4763L40.6547 26.5721ZM27.8961 45.2505H40C40.4142 45.2505 40.75 44.9147 40.75 44.5005V32.3966L43 25.1466V30.5681L47.7644 28.4148C49.7501 27.5173 52 28.9695 52 31.1486V42.8524C52 45.0315 49.7501 46.4836 47.7644 45.5862L43 43.4328V44.5005C43 46.1573 41.6569 47.5005 40 47.5005H25.6461L27.8961 45.2505ZM48.6911 30.4651L43.6282 32.7533C43.3597 32.8747 43.1871 33.1421 43.1871 33.4368V40.5642C43.1871 40.8589 43.3597 41.1263 43.6282 41.2476L48.6911 43.5359C49.1875 43.7602 49.75 43.3972 49.75 42.8524V31.1486C49.75 30.6038 49.1875 30.2408 48.6911 30.4651Z"
        fill="#6385EF" />
</svg>
