<svg width="33" height="32" viewBox="0 0 33 32" fill="none" xmlns="http://www.w3.org/2000/svg">
    <path d="M9.24492 7.05014C9.24492 6.27751 9.87126 5.65117 10.6439 5.65117H22.3887C23.1614 5.65117 23.7877 6.27751 23.7877 7.05014V12.9226C23.7877 16.9384 20.5322 20.1939 16.5163 20.1939C12.5004 20.1939 9.24492 16.9384 9.24492 12.9226V7.05014Z" stroke="#6385EF" stroke-width="1.9"/>
    <path d="M23.825 8.18047H27.2676C27.4415 8.18047 27.5825 8.32142 27.5825 8.4953V10.4268C27.5825 12.7012 25.9695 14.5989 23.825 15.0384V8.18047Z" stroke="#6385EF" stroke-width="1.9"/>
    <path d="M9.2082 8.18047H5.76556C5.59168 8.18047 5.45073 8.32142 5.45073 8.4953V10.4268C5.45073 12.7012 7.06372 14.5989 9.2082 15.0384V8.18047Z" stroke="#6385EF" stroke-width="1.9"/>
    <path d="M15.252 19.8789H17.7816V24.2716H15.252V19.8789Z" fill="#6385EF"/>
    <path d="M18.928 23.3592C21.2973 23.3592 23.218 25.2799 23.218 27.6492C23.218 27.7233 23.1579 27.7833 23.0838 27.7833L9.94768 27.7833C9.8736 27.7833 9.81354 27.7233 9.81354 27.6492C9.81354 25.2799 11.7342 23.3592 14.1035 23.3592L18.928 23.3592Z" stroke="#6385EF" stroke-width="1.9"/>
    <circle cx="21.8327" cy="22.6667" r="5.71667" fill="white" stroke="#96ADF4" stroke-width="1.9"/>
    <path d="M21.515 19.6427C21.6148 19.3356 22.0493 19.3356 22.1491 19.6427L22.6552 21.2006C22.6999 21.3379 22.8279 21.4309 22.9723 21.4309H24.6104C24.9333 21.4309 25.0675 21.8441 24.8063 22.0339L23.481 22.9968C23.3642 23.0817 23.3153 23.2321 23.36 23.3695L23.8662 24.9274C23.9659 25.2345 23.6144 25.4899 23.3532 25.3001L22.028 24.3372C21.9111 24.2523 21.7529 24.2523 21.6361 24.3372L20.3109 25.3001C20.0496 25.4899 19.6981 25.2345 19.7979 24.9274L20.3041 23.3695C20.3487 23.2321 20.2998 23.0817 20.183 22.9968L18.8578 22.0339C18.5965 21.8441 18.7308 21.4309 19.0537 21.4309H20.6918C20.8362 21.4309 20.9642 21.3379 21.0088 21.2006L21.515 19.6427Z" fill="#96ADF4"/>
</svg>
