<svg width="42" height="42" viewBox="0 0 42 42" fill="none" xmlns="http://www.w3.org/2000/svg">
    <path d="M29.2241 13.9526L30.1731 15.4493L30.9948 17.0195C31.2662 17.5382 31.1802 18.1717 30.7804 18.5993C29.6022 19.8593 29.6022 21.8169 30.7804 23.0769C31.1802 23.5045 31.2662 24.138 30.9948 24.6567L30.1731 26.2269L29.2241 27.7236C28.9106 28.218 28.319 28.4603 27.7487 28.3278C26.0684 27.9375 24.3732 28.9163 23.8711 30.5666C23.7007 31.1267 23.195 31.5179 22.6101 31.5422L20.8394 31.6157L19.0688 31.5422C18.4839 31.5179 17.9782 31.1267 17.8078 30.5666C17.3057 28.9163 15.6104 27.9375 13.9301 28.3278C13.3599 28.4603 12.7682 28.218 12.4547 27.7236L11.5057 26.2269L10.6841 24.6567C10.4127 24.138 10.4986 23.5045 10.8985 23.0769C12.0766 21.8169 12.0766 19.8593 10.8985 18.5993C10.4986 18.1717 10.4127 17.5382 10.6841 17.0195L11.5057 15.4493L12.4547 13.9526C12.7682 13.4582 13.3599 13.2159 13.9301 13.3484C15.6104 13.7387 17.3057 12.7599 17.8078 11.1096C17.9782 10.5495 18.4839 10.1583 19.0688 10.134L20.8394 10.0605L22.6101 10.134C23.195 10.1583 23.7007 10.5495 23.8711 11.1096C24.3732 12.7599 26.0684 13.7387 27.7487 13.3484C28.319 13.2159 28.9106 13.4582 29.2241 13.9526Z" stroke="#6385EF" stroke-width="1.9"/>
    <circle cx="20.84" cy="20.8391" r="4.15872" transform="rotate(-60 20.84 20.8391)" stroke="#6385EF" stroke-width="1.9"/>
    <path d="M27.9722 22.1538C28.1957 22.0248 28.471 22.0248 28.6944 22.1538L33.8174 25.1115C34.0408 25.2405 34.1785 25.4789 34.1785 25.7369V31.6524C34.1785 31.9104 34.0408 32.1488 33.8174 32.2778L28.6944 35.2356C28.471 35.3646 28.1957 35.3646 27.9722 35.2356L22.8493 32.2778C22.6259 32.1488 22.4882 31.9104 22.4882 31.6524V25.7369C22.4882 25.4789 22.6259 25.2405 22.8493 25.1115L27.9722 22.1538Z" stroke="#96ADF4" stroke-width="1.44444"/>
    <path d="M27.9722 22.1538C28.1957 22.0248 28.471 22.0248 28.6944 22.1538L33.8174 25.1115C34.0408 25.2405 34.1785 25.4789 34.1785 25.7369V31.6524C34.1785 31.9104 34.0408 32.1488 33.8174 32.2778L28.6944 35.2356C28.471 35.3646 28.1957 35.3646 27.9722 35.2356L22.8493 32.2778C22.6259 32.1488 22.4882 31.9104 22.4882 31.6524V25.7369C22.4882 25.4789 22.6259 25.2405 22.8493 25.1115L27.9722 22.1538Z" fill="white" stroke="#96ADF4" stroke-width="1.44444"/>
    <path d="M30.9965 32.2584V32.3186L31.0496 32.2902L31.7819 31.8996L31.8011 31.8894V31.8678V26.108L32.9223 26.7707L32.9768 26.8029V26.7396V26.0448V26.0228L32.9572 26.0127L30.5439 24.7716L30.4912 24.7445V24.8037V25.4985V25.5198L30.5099 25.5301L30.9965 25.7992V32.2584Z" fill="#96ADF4" stroke="#96ADF4" stroke-width="0.0722222"/>
    <path d="M27.4096 24.22L27.3936 24.2307V24.2501V33.1402V33.1622L27.4132 33.1723L28.1455 33.5488L28.1981 33.5758V33.5166V29.2406H30.1126H30.1488V29.2045V28.5097V28.4736H30.1126H28.1981V24.8025L28.5408 24.5281L30.0945 25.434L30.1488 25.4657V25.4028V24.6268V24.6056L30.1302 24.5953L28.3594 23.61L28.3402 23.5993L28.3218 23.6116L27.4096 24.22Z" fill="#96ADF4" stroke="#96ADF4" stroke-width="0.0722222"/>
    <path d="M24 26.0675L24.9149 25.5758L26.1374 29.4572H26.1862L26.1374 28.2044V24.9583L26.8889 24.4658V32.9319L26.0886 32.4502L24.7515 27.696H24.7027L24.7515 28.9488V31.8351L24 31.4349V26.0675Z" fill="#96ADF4"/>
</svg>
