<svg width="32" height="32" viewBox="0 0 32 32" fill="none" xmlns="http://www.w3.org/2000/svg">
    <circle cx="16" cy="16" r="16" fill="#F0F0F0"/>
    <path d="M10.5586 8.81949C10.5586 8.25687 11.0147 7.80078 11.5773 7.80078H20.4208C20.9835 7.80078 21.4395 8.25687 21.4395 8.81949V13.2413C21.4395 16.2459 19.0038 18.6817 15.9991 18.6817C12.9944 18.6817 10.5586 16.2459 10.5586 13.2413V8.81949Z" stroke="#1B1E28" stroke-width="1.5"/>
    <path d="M21.4727 9.70703H24.5322C24.644 9.70703 24.7346 9.79764 24.7346 9.90941V10.8618C24.7346 12.8212 23.3299 14.4525 21.4727 14.8037V9.70703Z" stroke="#1B1E28" stroke-width="1.5"/>
    <path d="M10.5586 9.70703H7.49907C7.3873 9.70703 7.29669 9.79764 7.29669 9.90941V10.8618C7.29669 12.8212 8.70133 14.4525 10.5586 14.8037V9.70703Z" stroke="#1B1E28" stroke-width="1.5"/>
    <path d="M15.0469 18.4805H16.9516V22.29H15.0469V18.4805Z" fill="#1B1E28"/>
    <path d="M17.8161 21.1328C19.581 21.1328 21.0117 22.5635 21.0117 24.3284C21.0117 24.365 20.982 24.3947 20.9454 24.3947L11.0542 24.3947C11.0176 24.3947 10.9879 24.365 10.9879 24.3284C10.9879 22.5635 12.4186 21.1328 14.1835 21.1328L17.8161 21.1328Z" stroke="#1B1E28" stroke-width="1.5"/>
    <path d="M24.5719 19.9061C24.5719 22.799 22.2267 25.1442 19.3338 25.1442C17.2982 25.1442 15.5339 23.9831 14.6669 22.287C14.3017 21.5727 14.0957 20.7634 14.0957 19.9061C14.0957 17.0131 16.4409 14.668 19.3338 14.668C22.2267 14.668 24.5719 17.0131 24.5719 19.9061Z" fill="#F0F0F0" stroke="#1B1E28" stroke-width="1.5"/>
    <path d="M19.334 17.5234V20.3806H21.2387" stroke="#1B1E28" stroke-width="1.5" stroke-linecap="round" stroke-linejoin="round"/>
</svg>
