<svg width="33" height="32" viewBox="0 0 33 32" fill="none" xmlns="http://www.w3.org/2000/svg">
    <mask id="path-1-inside-1_3216_91498" fill="white">
        <rect x="5.83398" y="4" width="12" height="12" rx="1.33333"/>
    </mask>
    <rect x="5.83398" y="4" width="12" height="12" rx="1.33333" fill="white" stroke="#6385EF" stroke-width="3.8" mask="url(#path-1-inside-1_3216_91498)"/>
    <path d="M12.1068 8.88216L10.8356 13H9.48568L11.4014 7.78646H12.2572L12.1068 8.88216ZM13.1595 13L11.8848 8.88216L11.7201 7.78646H12.5866L14.513 13H13.1595ZM13.1094 11.0557V12.026H10.4346V11.0557H13.1094Z" fill="#6385EF"/>
    <mask id="path-3-inside-2_3216_91498" fill="white">
        <rect x="15.834" y="10" width="12" height="12" rx="1.33333"/>
    </mask>
    <rect x="15.834" y="10" width="12" height="12" rx="1.33333" fill="white" stroke="#96ADF4" stroke-width="3.8" mask="url(#path-3-inside-2_3216_91498)"/>
    <path d="M22.0244 16.7835H20.6816L20.6745 15.96H21.763C21.9588 15.96 22.1151 15.9385 22.2321 15.8955C22.3491 15.8502 22.4338 15.7845 22.4863 15.6986C22.5412 15.6126 22.5687 15.5052 22.5687 15.3763C22.5687 15.2283 22.5412 15.1089 22.4863 15.0182C22.4314 14.9275 22.3443 14.8619 22.2249 14.8213C22.108 14.7783 21.9564 14.7568 21.7702 14.7568H21.1543V19H19.8975V13.7865H21.7702C22.0924 13.7865 22.3801 13.8163 22.6331 13.876C22.8862 13.9333 23.101 14.0216 23.2777 14.141C23.4567 14.2603 23.5928 14.4107 23.6859 14.5921C23.779 14.7712 23.8255 14.9824 23.8255 15.2259C23.8255 15.4384 23.7802 15.6377 23.6895 15.8239C23.5987 16.0101 23.4472 16.1617 23.2347 16.2786C23.0246 16.3932 22.737 16.4529 22.3717 16.4577L22.0244 16.7835ZM21.9743 19H20.3773L20.807 18.0332H21.9743C22.1462 18.0332 22.2834 18.0069 22.3861 17.9544C22.4911 17.8995 22.5663 17.8279 22.6117 17.7396C22.6594 17.6489 22.6833 17.5486 22.6833 17.4388C22.6833 17.3051 22.6606 17.1893 22.6152 17.0915C22.5723 16.9936 22.503 16.9184 22.4076 16.8659C22.3121 16.811 22.1844 16.7835 22.0244 16.7835H20.9681L20.9753 15.96H22.2393L22.5329 16.2894C22.8814 16.2751 23.1571 16.324 23.36 16.4362C23.5653 16.5484 23.7121 16.6964 23.8005 16.8802C23.8888 17.064 23.9329 17.2562 23.9329 17.4567C23.9329 17.7981 23.8589 18.0833 23.7109 18.3125C23.5653 18.5417 23.3469 18.7135 23.0557 18.8281C22.7644 18.9427 22.404 19 21.9743 19Z" fill="#96ADF4"/>
    <mask id="path-5-inside-3_3216_91498" fill="white">
        <rect x="7.16602" y="16.667" width="12" height="12" rx="1.33333"/>
    </mask>
    <rect x="7.16602" y="16.667" width="12" height="12" rx="1.33333" fill="white" stroke="#6385EF" stroke-width="3.8" mask="url(#path-5-inside-3_3216_91498)"/>
    <path d="M14.1943 23.9017H15.4476C15.4309 24.2645 15.333 24.5844 15.154 24.8613C14.9749 25.1382 14.7267 25.3543 14.4092 25.5094C14.0941 25.6622 13.7217 25.7386 13.292 25.7386C12.9435 25.7386 12.6319 25.6801 12.3574 25.5632C12.0853 25.4462 11.8537 25.2779 11.6628 25.0583C11.4742 24.8387 11.3298 24.5725 11.2295 24.2598C11.1316 23.947 11.0827 23.5949 11.0827 23.2035V22.9206C11.0827 22.5291 11.134 22.177 11.2367 21.8643C11.3417 21.5492 11.4897 21.2818 11.6807 21.0622C11.874 20.8402 12.1056 20.6707 12.3753 20.5537C12.6451 20.4367 12.9447 20.3783 13.2741 20.3783C13.7276 20.3783 14.1108 20.4594 14.4235 20.6217C14.7362 20.7841 14.9785 21.0073 15.1504 21.2913C15.3223 21.573 15.4237 21.8941 15.4548 22.2546H14.2015C14.1967 22.0588 14.1633 21.8953 14.1012 21.764C14.0392 21.6303 13.9413 21.5301 13.8076 21.4632C13.6739 21.3964 13.4961 21.363 13.2741 21.363C13.1189 21.363 12.984 21.3916 12.8695 21.4489C12.7549 21.5062 12.6594 21.5969 12.583 21.721C12.5066 21.8452 12.4493 22.0063 12.4111 22.2044C12.3753 22.4002 12.3574 22.6365 12.3574 22.9134V23.2035C12.3574 23.4804 12.3741 23.7167 12.4076 23.9124C12.441 24.1082 12.4947 24.2681 12.5687 24.3923C12.6427 24.5164 12.7382 24.6083 12.8551 24.668C12.9745 24.7253 13.1201 24.7539 13.292 24.7539C13.483 24.7539 13.6441 24.7241 13.7754 24.6644C13.9067 24.6023 14.0081 24.5092 14.0798 24.3851C14.1514 24.2586 14.1896 24.0974 14.1943 23.9017Z" fill="#6385EF"/>
</svg>
