<svg width="33" height="32" viewBox="0 0 33 32" fill="none" xmlns="http://www.w3.org/2000/svg">
    <path d="M17.5001 22.7413L19.389 24.6302C19.7367 24.9779 19.7367 25.5417 19.389 25.8895L18.1278 27.1506C16.9713 28.3071 15.2606 28.711 13.709 28.1938C9.35725 26.7432 5.94244 23.3284 4.49186 18.9766C3.97464 17.425 4.37848 15.7143 5.53501 14.5578L6.79614 13.2966C7.14388 12.9489 7.70768 12.9489 8.05542 13.2966L9.94435 15.1856C10.2921 15.5333 10.2921 16.0971 9.94435 16.4448L8.77282 17.6164C8.71735 17.6718 8.69011 17.7495 8.69877 17.8275C9.05887 21.0684 11.6173 23.6267 14.8581 23.9868C14.9361 23.9955 15.0138 23.9683 15.0692 23.9128L16.2408 22.7413C16.5885 22.3935 17.1523 22.3935 17.5001 22.7413Z" stroke="#6385EF" stroke-width="1.9"/>
    <path d="M21.412 22.2304C26.0777 21.125 28.9639 16.4465 27.8585 11.7808C26.7531 7.11504 22.0746 4.22883 17.4089 5.33424C14.0879 6.12106 11.6684 8.71814 10.9483 11.8324" stroke="#96ADF4" stroke-width="1.93138" stroke-linecap="round"/>
    <path d="M18.4492 9.45392C18.4492 8.92115 18.8811 8.48926 19.4139 8.48926C19.9466 8.48926 20.3785 8.92115 20.3785 9.45392V15.2419H18.4492V9.45392Z" fill="#96ADF4"/>
    <path d="M23.2717 13.3125C23.8044 13.3125 24.2363 13.7444 24.2363 14.2772C24.2363 14.8099 23.8044 15.2418 23.2717 15.2418L18.4484 15.2418L18.4484 13.3125L23.2717 13.3125Z" fill="#96ADF4"/>
</svg>
