<svg width="33" height="32" viewBox="0 0 33 32" fill="none" xmlns="http://www.w3.org/2000/svg">
    <path d="M23.8333 16.6663V7.85967C23.8333 6.46423 22.7021 5.33301 21.3067 5.33301H11.0267C9.63123 5.33301 8.5 6.46423 8.5 7.85967V16.6663" stroke="#6385EF" stroke-width="1.9"/>
    <circle cx="16.1667" cy="11.9997" r="4.00167" fill="white" stroke="#96ADF4" stroke-width="1.33"/>
    <path d="M15.9453 9.8822C16.0151 9.66722 16.3193 9.66722 16.3891 9.8822L16.7434 10.9727C16.7747 11.0689 16.8643 11.134 16.9654 11.134L18.112 11.134C18.3381 11.134 18.432 11.4232 18.2492 11.5561L17.3215 12.2301C17.2397 12.2895 17.2055 12.3948 17.2367 12.4909L17.5911 13.5815C17.6609 13.7965 17.4149 13.9752 17.232 13.8424L16.3043 13.1684C16.2226 13.109 16.1118 13.109 16.03 13.1684L15.1024 13.8424C14.9195 13.9752 14.6735 13.7965 14.7433 13.5815L15.0976 12.4909C15.1289 12.3948 15.0947 12.2895 15.0129 12.2301L14.0852 11.5561C13.9023 11.4232 13.9963 11.134 14.2224 11.134L15.369 11.134C15.4701 11.134 15.5597 11.0689 15.5909 10.9727L15.9453 9.8822Z" fill="#96ADF4"/>
    <path d="M4.5 14V24.8067C4.5 26.2021 5.63123 27.3333 7.02667 27.3333H25.9733C27.3688 27.3333 28.5 26.2021 28.5 24.8067V14M4.5 14L15.2586 20.069C16.0291 20.5036 16.9709 20.5036 17.7414 20.069L28.5 14M4.5 14L8.5 12M28.5 14L23.8333 12" stroke="#6385EF" stroke-width="1.9"/>
    <path d="M4.5 26.6663L14.5 19.333" stroke="#6385EF" stroke-width="1.9"/>
    <path d="M18.5 19.3337L28.5 26.667" stroke="#6385EF" stroke-width="1.9"/>
</svg>
