<svg width="18" height="18" viewBox="0 0 18 18" fill="none" xmlns="http://www.w3.org/2000/svg">
    <path d="M1 5C1 4.44772 1.44772 4 2 4H16C16.5523 4 17 4.44772 17 5V16C17 16.5523 16.5523 17 16 17H2C1.44772 17 1 16.5523 1 16V5Z" stroke="#B8B9BC" stroke-width="2"/>
    <path d="M1 2C1 1.44772 1.44772 1 2 1H16C16.5523 1 17 1.44772 17 2V4H1V2Z" stroke="#B8B9BC" stroke-width="2"/>
    <path d="M10 10.5C10 9.11929 11.1193 8 12.5 8H17V13H12.5C11.1193 13 10 11.8807 10 10.5Z" stroke="#B8B9BC" stroke-width="2"/>
    <circle cx="14" cy="10.5" r="1" fill="#B8B9BC"/>
</svg>
